<svg width="1920" height="1053" viewBox="0 0 1920 1053" fill="none" xmlns="http://www.w3.org/2000/svg">
<rect y="11" width="1920" height="1042" fill="#0A0A0A"/>
<path d="M183.05 116.1L182.137 115.691L182.135 115.696L183.05 116.1ZM164.56 138.46L165.101 139.301L165.101 139.301L164.56 138.46ZM107.37 138.46L106.829 139.301L106.836 139.306L107.37 138.46ZM88.88 116.1L89.7949 115.696L89.7927 115.691L88.88 116.1ZM82.43 48.16L83.43 48.16L83.43 47.16L82.43 47.16L82.43 48.16ZM39 48.16L38 48.16L38 49.16L39 49.16L39 48.16ZM39 20.21L39 19.21L38 19.21L38 20.21L39 20.21ZM189.5 20.21L190.5 20.21L190.5 19.21L189.5 19.21L189.5 20.21ZM113.82 108.575L114.594 107.942L114.594 107.942L113.82 108.575ZM158.11 108.575L157.336 107.942L157.336 107.942L158.11 108.575ZM165.85 48.16L166.85 48.16L166.85 47.16L165.85 47.16L165.85 48.16ZM106.08 48.16L106.08 47.16L105.08 47.16L105.08 48.16L106.08 48.16ZM188.5 82.13C188.5 95.0653 186.368 106.243 182.137 115.691L183.963 116.509C188.332 106.75 190.5 95.2814 190.5 82.13L188.5 82.13ZM182.135 115.696C177.905 125.285 171.862 132.577 164.019 137.619L165.101 139.301C173.311 134.023 179.595 126.408 183.965 116.504L182.135 115.696ZM164.019 137.619C156.178 142.66 146.841 145.2 135.965 145.2L135.965 147.2C147.163 147.2 156.889 144.58 165.101 139.301L164.019 137.619ZM135.965 145.2C125.236 145.2 115.894 142.661 107.904 137.615L106.836 139.306C115.186 144.579 124.907 147.2 135.965 147.2L135.965 145.2ZM107.911 137.619C100.068 132.577 94.0253 125.285 89.7949 115.696L87.9651 116.504C92.3347 126.408 98.6188 134.023 106.829 139.301L107.911 137.619ZM89.7927 115.691C85.5623 106.243 83.43 95.0653 83.43 82.13L81.43 82.13C81.43 95.2814 83.5977 106.75 87.9673 116.509L89.7927 115.691ZM83.43 82.13L83.43 48.16L81.43 48.16L81.43 82.13L83.43 82.13ZM82.43 47.16L39 47.16L39 49.16L82.43 49.16L82.43 47.16ZM40 48.16L40 20.21L38 20.21L38 48.16L40 48.16ZM39 21.21L189.5 21.21L189.5 19.21L39 19.21L39 21.21ZM188.5 20.21L188.5 82.13L190.5 82.13L190.5 20.21L188.5 20.21ZM105.08 80.84C105.08 93.1442 107.683 102.653 113.046 109.208L114.594 107.942C109.637 101.884 107.08 92.9024 107.08 80.84L105.08 80.84ZM113.046 109.208C118.431 115.79 126.121 119.035 135.965 119.035L135.965 117.035C126.602 117.035 119.529 113.974 114.594 107.942L113.046 109.208ZM135.965 119.035C145.809 119.035 153.499 115.79 158.884 109.208L157.336 107.942C152.401 113.974 145.328 117.035 135.965 117.035L135.965 119.035ZM158.884 109.208C164.247 102.653 166.85 93.1442 166.85 80.84L164.85 80.84C164.85 92.9024 162.293 101.884 157.336 107.942L158.884 109.208ZM166.85 80.84L166.85 48.16L164.85 48.16L164.85 80.84L166.85 80.84ZM165.85 47.16L106.08 47.16L106.08 49.16L165.85 49.16L165.85 47.16ZM105.08 48.16L105.08 80.84L107.08 80.84L107.08 48.16L105.08 48.16ZM153.81 181.232L154.81 181.232L154.81 180.232L153.81 180.232L153.81 181.232ZM153.81 208.107L153.81 209.107L154.81 209.107L154.81 208.107L153.81 208.107ZM39 208.107L38 208.107L38 209.107L39 209.107L39 208.107ZM39 181.232L39 180.232L38 180.232L38 181.232L39 181.232ZM177.245 182.522L176.522 181.83L176.514 181.839L176.507 181.847L177.245 182.522ZM200.25 182.522L199.512 183.196L199.519 183.204L199.527 183.213L200.25 182.522ZM200.465 207.032L199.727 206.357L199.718 206.366L199.71 206.375L200.465 207.032ZM177.46 207.032L178.167 206.324L178.167 206.324L177.46 207.032ZM152.81 181.232L152.81 208.107L154.81 208.107L154.81 181.232L152.81 181.232ZM153.81 207.107L39 207.107L39 209.107L153.81 209.107L153.81 207.107ZM40 208.107L40 181.232L38 181.232L38 208.107L40 208.107ZM39 182.232L153.81 182.232L153.81 180.232L39 180.232L39 182.232ZM173.73 194.777C173.73 190.128 175.158 186.291 177.983 183.196L176.507 181.847C173.312 185.346 171.73 189.679 171.73 194.777L173.73 194.777ZM177.968 183.213C180.931 180.115 184.54 178.577 188.855 178.577L188.855 176.577C183.997 176.577 179.866 178.335 176.522 181.83L177.968 183.213ZM188.855 178.577C193.169 178.577 196.697 180.113 199.512 183.196L200.989 181.847C197.783 178.337 193.714 176.577 188.855 176.577L188.855 178.577ZM199.527 183.213C202.49 186.31 203.98 190.141 203.98 194.777L205.98 194.777C205.98 189.665 204.317 185.327 200.973 181.83L199.527 183.213ZM203.98 194.777C203.98 199.425 202.552 203.262 199.727 206.357L201.203 207.706C204.398 204.207 205.98 199.875 205.98 194.777L203.98 194.777ZM199.71 206.375C197.037 209.449 193.66 210.977 189.5 210.977L189.5 212.977C194.227 212.977 198.159 211.207 201.22 207.688L199.71 206.375ZM189.5 210.977C185.031 210.977 181.273 209.431 178.167 206.324L176.753 207.739C180.24 211.226 184.509 212.977 189.5 212.977L189.5 210.977ZM178.167 206.324C175.225 203.383 173.73 199.564 173.73 194.777L171.73 194.777C171.73 200.022 173.388 204.374 176.753 207.739L178.167 206.324ZM45.02 274.77L44.1365 274.301L44.1365 274.301L45.02 274.77ZM65.875 252.625L65.3686 251.763L65.3625 251.766L65.875 252.625ZM147.575 274.555L148.458 274.086L148.455 274.081L147.575 274.555ZM148.22 336.475L147.341 335.998L147.338 336.004L148.22 336.475ZM128.44 355.825L127.576 356.329L128.049 357.139L128.887 356.719L128.44 355.825ZM116.4 335.185L115.872 334.336L115.046 334.849L115.536 335.689L116.4 335.185ZM128.225 322.715L127.352 322.227L127.344 322.242L127.336 322.258L128.225 322.715ZM122.42 281.65L121.705 282.349L121.713 282.357L122.42 281.65ZM70.175 281.435L69.4757 280.72L69.4679 280.728L69.4602 280.736L70.175 281.435ZM64.37 322.715L63.4862 323.183L63.4912 323.192L64.37 322.715ZM76.41 335.185L77.2738 335.689L77.7637 334.849L76.9379 334.336L76.41 335.185ZM64.37 355.825L63.911 356.713L64.7551 357.15L65.2338 356.329L64.37 355.825ZM44.375 336.26L43.496 336.737L43.4988 336.742L44.375 336.26ZM38.495 306.805C38.495 295.053 40.9715 284.539 45.9035 275.239L44.1365 274.301C39.0352 283.921 36.495 294.763 36.495 306.805L38.495 306.805ZM45.9035 275.239C50.8376 265.934 57.6634 258.69 66.3875 253.484L65.3625 251.766C56.3132 257.167 49.2358 264.686 44.1365 274.301L45.9035 275.239ZM66.3814 253.487C75.2455 248.281 85.2448 245.67 96.405 245.67L96.405 243.67C84.9186 243.67 74.5645 246.362 65.3686 251.763L66.3814 253.487ZM96.405 245.67C107.565 245.67 117.49 248.281 126.208 253.484L127.232 251.766C118.176 246.362 107.891 243.67 96.405 243.67L96.405 245.67ZM126.208 253.484C134.935 258.692 141.762 265.868 146.695 275.029L148.455 274.081C143.355 264.609 136.278 257.164 127.232 251.766L126.208 253.484ZM146.692 275.024C151.623 284.322 154.1 294.908 154.1 306.805L156.1 306.805C156.1 294.622 153.561 283.708 148.458 274.086L146.692 275.024ZM154.1 306.805C154.1 317.991 151.835 327.712 147.341 335.998L149.099 336.952C153.778 328.325 156.1 318.265 156.1 306.805L154.1 306.805ZM147.338 336.004C142.847 344.424 136.405 350.725 127.993 354.931L128.887 356.719C137.675 352.325 144.42 345.726 149.102 336.946L147.338 336.004ZM129.304 355.321L117.264 334.681L115.536 335.689L127.576 356.329L129.304 355.321ZM116.928 336.034C122.368 332.653 126.443 328.367 129.114 323.172L127.336 322.258C124.847 327.097 121.039 331.124 115.872 334.336L116.928 336.034ZM129.098 323.203C131.909 318.172 133.31 312.628 133.31 306.59L131.31 306.59C131.31 312.305 129.988 317.511 127.352 322.227L129.098 323.203ZM133.31 306.59C133.31 296.314 129.923 287.739 123.127 280.943L121.713 282.357C128.104 288.748 131.31 296.8 131.31 306.59L133.31 306.59ZM123.135 280.951C116.463 274.13 107.515 270.76 96.405 270.76L96.405 272.76C107.082 272.76 115.477 275.983 121.705 282.349L123.135 280.951ZM96.405 270.76C85.301 270.76 76.2893 274.055 69.4757 280.72L70.8743 282.15C77.2474 275.915 85.7224 272.76 96.405 272.76L96.405 270.76ZM69.4602 280.736C62.8077 287.536 59.5 296.181 59.5 306.59L61.5 306.59C61.5 296.645 64.6423 288.521 70.8898 282.134L69.4602 280.736ZM59.5 306.59C59.5 312.619 60.8249 318.156 63.4862 323.183L65.2538 322.247C62.7551 317.527 61.5 312.315 61.5 306.59L59.5 306.59ZM63.4912 323.192C66.3048 328.375 70.4457 332.655 75.8821 336.034L76.9379 334.336C71.7677 331.122 67.8818 327.088 65.2489 322.238L63.4912 323.192ZM75.5462 334.681L63.5062 355.321L65.2338 356.329L77.2738 335.689L75.5462 334.681ZM64.829 354.937C56.4079 350.586 49.887 344.207 45.2512 335.778L43.4988 336.742C48.323 345.513 55.1321 352.178 63.911 356.713L64.829 354.937ZM45.254 335.783C40.7588 327.495 38.495 317.846 38.495 306.805L36.495 306.805C36.495 318.124 38.8179 328.112 43.496 336.737L45.254 335.783ZM88.235 435.627L88.8634 436.405L89.7047 435.725L88.9614 434.94L88.235 435.627ZM69.315 415.632L70.0414 414.945L69.7455 414.632L69.315 414.632L69.315 415.632ZM39 415.632L38 415.632L38 416.632L39 416.632L39 415.632ZM39 388.757L39 387.757L38 387.757L38 388.757L39 388.757ZM198.53 388.757L199.53 388.757L199.53 387.757L198.53 387.757L198.53 388.757ZM198.53 415.632L198.53 416.632L199.53 416.632L199.53 415.632L198.53 415.632ZM102.21 415.632L102.21 414.632L99.92 414.632L101.477 416.312L102.21 415.632ZM153.81 471.317L154.81 471.317L154.81 470.925L154.544 470.637L153.81 471.317ZM153.81 503.567L153.104 504.276L154.81 505.974L154.81 503.567L153.81 503.567ZM105.65 455.622L106.356 454.913L105.728 454.288L105.032 454.836L105.65 455.622ZM39 508.082L38 508.082L38 510.142L39.6185 508.868L39 508.082ZM39 475.402L38.3716 474.624L38 474.924L38 475.402L39 475.402ZM88.9614 434.94L70.0414 414.945L68.5886 416.319L87.5086 436.314L88.9614 434.94ZM69.315 414.632L39 414.632L39 416.632L69.315 416.632L69.315 414.632ZM40 415.632L40 388.757L38 388.757L38 415.632L40 415.632ZM39 389.757L198.53 389.757L198.53 387.757L39 387.757L39 389.757ZM197.53 388.757L197.53 415.632L199.53 415.632L199.53 388.757L197.53 388.757ZM198.53 414.632L102.21 414.632L102.21 416.632L198.53 416.632L198.53 414.632ZM101.477 416.312L153.077 471.997L154.544 470.637L102.944 414.952L101.477 416.312ZM152.81 471.317L152.81 503.567L154.81 503.567L154.81 471.317L152.81 471.317ZM154.516 502.858L106.356 454.913L104.944 456.331L153.104 504.276L154.516 502.858ZM105.032 454.836L38.3815 507.296L39.6185 508.868L106.268 456.408L105.032 454.836ZM40 508.082L40 475.402L38 475.402L38 508.082L40 508.082ZM39.6284 476.18L88.8634 436.405L87.6066 434.849L38.3716 474.624L39.6284 476.18ZM73.83 636.382L74.2267 637.3L74.83 637.039L74.83 636.382L73.83 636.382ZM73.83 561.132L74.83 561.132L74.83 560.471L74.2219 560.212L73.83 561.132ZM39 546.297L38 546.297L38 546.958L38.6081 547.217L39 546.297ZM39 517.487L39.4104 516.575L38 515.94L38 517.487L39 517.487ZM189.5 585.212L190.5 585.212L190.5 584.565L189.91 584.3L189.5 585.212ZM189.5 612.732L189.911 613.643L190.5 613.377L190.5 612.732L189.5 612.732ZM39 680.672L38 680.672L38 682.22L39.4115 681.583L39 680.672ZM39 651.432L38.6034 650.514L38 650.774L38 651.432L39 651.432ZM95.76 627.137L94.76 627.137L94.76 628.657L96.1561 628.055L95.76 627.137ZM161.55 598.757L161.946 599.675L164.083 598.753L161.944 597.837L161.55 598.757ZM95.76 570.592L96.1536 569.672L94.76 569.076L94.76 570.592L95.76 570.592ZM74.83 636.382L74.83 561.132L72.83 561.132L72.83 636.382L74.83 636.382ZM74.2219 560.212L39.3919 545.377L38.6081 547.217L73.4381 562.052L74.2219 560.212ZM40 546.297L40 517.487L38 517.487L38 546.297L40 546.297ZM38.5896 518.398L189.09 586.123L189.91 584.3L39.4104 516.575L38.5896 518.398ZM188.5 585.212L188.5 612.732L190.5 612.732L190.5 585.212L188.5 585.212ZM189.089 611.82L38.5886 679.76L39.4115 681.583L189.911 613.643L189.089 611.82ZM40 680.672L40 651.432L38 651.432L38 680.672L40 680.672ZM39.3967 652.35L74.2267 637.3L73.4334 635.464L38.6034 650.514L39.3967 652.35ZM96.1561 628.055L161.946 599.675L161.154 597.838L95.3639 626.218L96.1561 628.055ZM161.944 597.837L96.1536 569.672L95.3664 571.511L161.156 599.676L161.944 597.837ZM94.76 570.592L94.76 627.137L96.76 627.137L96.76 570.592L94.76 570.592ZM153.81 707.982L154.81 707.982L154.81 706.982L153.81 706.982L153.81 707.982ZM153.81 734.857L153.81 735.857L154.81 735.857L154.81 734.857L153.81 734.857ZM39 734.857L38 734.857L38 735.857L39 735.857L39 734.857ZM39 707.982L39 706.982L38 706.982L38 707.982L39 707.982ZM177.245 709.272L176.522 708.58L176.514 708.589L176.507 708.597L177.245 709.272ZM200.25 709.272L199.512 709.946L199.519 709.954L199.527 709.963L200.25 709.272ZM200.465 733.782L199.727 733.107L199.718 733.116L199.71 733.125L200.465 733.782ZM177.46 733.782L178.167 733.074L178.167 733.074L177.46 733.782ZM152.81 707.982L152.81 734.857L154.81 734.857L154.81 707.982L152.81 707.982ZM153.81 733.857L39 733.857L39 735.857L153.81 735.857L153.81 733.857ZM40 734.857L40 707.982L38 707.982L38 734.857L40 734.857ZM39 708.982L153.81 708.982L153.81 706.982L39 706.982L39 708.982ZM173.73 721.527C173.73 716.878 175.158 713.041 177.983 709.946L176.507 708.597C173.312 712.096 171.73 716.429 171.73 721.527L173.73 721.527ZM177.968 709.963C180.931 706.865 184.54 705.327 188.855 705.327L188.855 703.327C183.997 703.327 179.866 705.085 176.522 708.58L177.968 709.963ZM188.855 705.327C193.169 705.327 196.697 706.863 199.512 709.946L200.989 708.597C197.783 705.087 193.714 703.327 188.855 703.327L188.855 705.327ZM199.527 709.963C202.49 713.06 203.98 716.891 203.98 721.527L205.98 721.527C205.98 716.415 204.317 712.077 200.973 708.58L199.527 709.963ZM203.98 721.527C203.98 726.175 202.552 730.012 199.727 733.107L201.204 734.456C204.398 730.957 205.98 726.625 205.98 721.527L203.98 721.527ZM199.71 733.125C197.037 736.199 193.66 737.727 189.5 737.727L189.5 739.727C194.227 739.727 198.159 737.957 201.22 734.438L199.71 733.125ZM189.5 737.727C185.031 737.727 181.273 736.181 178.167 733.074L176.753 734.489C180.24 737.976 184.509 739.727 189.5 739.727L189.5 737.727ZM178.167 733.074C175.225 730.133 173.73 726.314 173.73 721.527L171.73 721.527C171.73 726.772 173.388 731.124 176.753 734.489L178.167 733.074ZM142.415 960.19L141.708 959.483L141.702 959.489L142.415 960.19ZM39 972.875L38 972.875L38 973.875L39 973.875L39 972.875ZM39 946L39 945L38 945L38 946L39 946ZM123.925 939.335L123.272 938.577L123.262 938.586L123.925 939.335ZM122.635 898.485L121.955 899.218L121.964 899.227L122.635 898.485ZM39 890.315L38 890.315L38 891.315L39 891.315L39 890.315ZM39 863.44L39 862.44L38 862.44L38 863.44L39 863.44ZM123.925 856.775L123.272 856.017L123.262 856.026L123.925 856.775ZM122.85 815.71L123.53 814.977L123.52 814.968L122.85 815.71ZM39 807.755L38 807.755L38 808.755L39 808.755L39 807.755ZM39 780.88L39 779.88L38 779.88L38 780.88L39 780.88ZM153.81 780.88L154.81 780.88L154.81 779.88L153.81 779.88L153.81 780.88ZM153.81 806.465L153.81 807.465L154.81 807.465L154.81 806.465L153.81 806.465ZM139.19 806.465L139.19 805.465L136.428 805.465L138.55 807.233L139.19 806.465ZM151.015 822.59L150.094 822.979L150.094 822.979L151.015 822.59ZM150.155 866.88L149.261 866.433L149.255 866.444L149.249 866.456L150.155 866.88ZM135.965 882.79L135.442 881.938L134.218 882.689L135.347 883.576L135.965 882.79ZM149.94 901.065L149.025 901.47L149.029 901.477L149.032 901.484L149.94 901.065ZM154.1 925.79C154.1 940.061 149.939 951.252 141.708 959.483L143.122 960.897C151.805 952.215 156.1 940.472 156.1 925.79L154.1 925.79ZM141.702 959.489C133.643 967.687 121.404 971.875 104.79 971.875L104.79 973.875C121.716 973.875 134.56 969.607 143.128 960.891L141.702 959.489ZM104.79 971.875L39 971.875L39 973.875L104.79 973.875L104.79 971.875ZM40 972.875L40 946L38 946L38 972.875L40 972.875ZM39 947L101.35 947L101.35 945L39 945L39 947ZM101.35 947C111.51 947 119.316 944.753 124.588 940.084L123.262 938.586C118.501 942.804 111.257 945 101.35 945L101.35 947ZM124.578 940.093C130.006 935.418 132.665 928.734 132.665 920.2L130.665 920.2C130.665 928.292 128.164 934.365 123.272 938.577L124.578 940.093ZM132.665 920.2C132.665 910.923 129.56 903.402 123.306 897.743L121.964 899.227C127.75 904.461 130.665 911.417 130.665 920.2L132.665 920.2ZM123.315 897.752C117.193 892.078 108.458 889.315 97.265 889.315L97.265 891.315C108.146 891.315 116.324 893.999 121.955 899.218L123.315 897.752ZM97.265 889.315L39 889.315L39 891.315L97.265 891.315L97.265 889.315ZM40 890.315L40 863.44L38 863.44L38 890.315L40 890.315ZM39 864.44L101.35 864.44L101.35 862.44L39 862.44L39 864.44ZM101.35 864.44C111.51 864.44 119.316 862.193 124.588 857.524L123.262 856.026C118.501 860.244 111.257 862.44 101.35 862.44L101.35 864.44ZM124.578 857.533C130.006 852.858 132.665 846.174 132.665 837.64L130.665 837.64C130.665 845.732 128.164 851.805 123.272 856.017L124.578 857.533ZM132.665 837.64C132.665 828.233 129.641 820.641 123.53 814.977L122.17 816.443C127.812 821.673 130.665 828.701 130.665 837.64L132.665 837.64ZM123.52 814.968C117.396 809.441 108.591 806.755 97.265 806.755L97.265 808.755C108.299 808.755 116.551 811.372 122.18 816.452L123.52 814.968ZM97.265 806.755L39 806.755L39 808.755L97.265 808.755L97.265 806.755ZM40 807.755L40 780.88L38 780.88L38 807.755L40 807.755ZM39 781.88L153.81 781.88L153.81 779.88L39 779.88L39 781.88ZM152.81 780.88L152.81 806.465L154.81 806.465L154.81 780.88L152.81 780.88ZM153.81 805.465L139.19 805.465L139.19 807.465L153.81 807.465L153.81 805.465ZM138.55 807.233C143.582 811.427 147.43 816.67 150.094 822.979L151.936 822.201C149.154 815.61 145.118 810.103 139.83 805.697L138.55 807.233ZM150.094 822.979C152.759 829.291 154.1 836.323 154.1 844.09L156.1 844.09C156.1 836.09 154.718 828.789 151.936 822.201L150.094 822.979ZM154.1 844.09C154.1 852.561 152.477 860 149.261 866.433L151.049 867.327C154.426 860.574 156.1 852.819 156.1 844.09L154.1 844.09ZM149.249 866.456C146.178 873.017 141.581 878.171 135.442 881.938L136.488 883.642C142.962 879.669 147.825 874.217 151.061 867.304L149.249 866.456ZM135.347 883.576C141.23 888.199 145.791 894.156 149.025 901.47L150.855 900.661C147.496 893.067 142.74 886.841 136.583 882.004L135.347 883.576ZM149.032 901.484C152.406 908.793 154.1 916.89 154.1 925.79L156.1 925.79C156.1 916.63 154.354 908.243 150.848 900.646L149.032 901.484Z" fill="url(#paint0_linear_60_330)"/>
<path d="M1858.05 116.1L1857.14 115.691L1857.14 115.696L1858.05 116.1ZM1839.56 138.46L1840.1 139.301L1840.1 139.301L1839.56 138.46ZM1782.37 138.46L1781.83 139.301L1781.84 139.306L1782.37 138.46ZM1763.88 116.1L1764.79 115.696L1764.79 115.691L1763.88 116.1ZM1757.43 48.16L1758.43 48.16L1758.43 47.16L1757.43 47.16L1757.43 48.16ZM1714 48.16L1713 48.16L1713 49.16L1714 49.16L1714 48.16ZM1714 20.21L1714 19.21L1713 19.21L1713 20.21L1714 20.21ZM1864.5 20.21L1865.5 20.21L1865.5 19.21L1864.5 19.21L1864.5 20.21ZM1788.82 108.575L1789.59 107.942L1789.59 107.942L1788.82 108.575ZM1833.11 108.575L1832.34 107.942L1832.34 107.942L1833.11 108.575ZM1840.85 48.16L1841.85 48.16L1841.85 47.16L1840.85 47.16L1840.85 48.16ZM1781.08 48.16L1781.08 47.16L1780.08 47.16L1780.08 48.16L1781.08 48.16ZM1863.5 82.13C1863.5 95.0653 1861.37 106.243 1857.14 115.691L1858.96 116.509C1863.33 106.75 1865.5 95.2814 1865.5 82.13L1863.5 82.13ZM1857.14 115.696C1852.9 125.285 1846.86 132.577 1839.02 137.619L1840.1 139.301C1848.31 134.023 1854.6 126.408 1858.96 116.504L1857.14 115.696ZM1839.02 137.619C1831.18 142.66 1821.84 145.2 1810.97 145.2L1810.97 147.2C1822.16 147.2 1831.89 144.58 1840.1 139.301L1839.02 137.619ZM1810.97 145.2C1800.24 145.2 1790.89 142.661 1782.9 137.615L1781.84 139.306C1790.19 144.579 1799.91 147.2 1810.97 147.2L1810.97 145.2ZM1782.91 137.619C1775.07 132.577 1769.03 125.285 1764.79 115.696L1762.97 116.504C1767.33 126.408 1773.62 134.023 1781.83 139.301L1782.91 137.619ZM1764.79 115.691C1760.56 106.243 1758.43 95.0653 1758.43 82.13L1756.43 82.13C1756.43 95.2814 1758.6 106.75 1762.97 116.509L1764.79 115.691ZM1758.43 82.13L1758.43 48.16L1756.43 48.16L1756.43 82.13L1758.43 82.13ZM1757.43 47.16L1714 47.16L1714 49.16L1757.43 49.16L1757.43 47.16ZM1715 48.16L1715 20.21L1713 20.21L1713 48.16L1715 48.16ZM1714 21.21L1864.5 21.21L1864.5 19.21L1714 19.21L1714 21.21ZM1863.5 20.21L1863.5 82.13L1865.5 82.13L1865.5 20.21L1863.5 20.21ZM1780.08 80.84C1780.08 93.1442 1782.68 102.653 1788.05 109.208L1789.59 107.942C1784.64 101.884 1782.08 92.9024 1782.08 80.84L1780.08 80.84ZM1788.05 109.208C1793.43 115.79 1801.12 119.035 1810.97 119.035L1810.97 117.035C1801.6 117.035 1794.53 113.974 1789.59 107.942L1788.05 109.208ZM1810.97 119.035C1820.81 119.035 1828.5 115.79 1833.88 109.208L1832.34 107.942C1827.4 113.974 1820.33 117.035 1810.97 117.035L1810.97 119.035ZM1833.88 109.208C1839.25 102.653 1841.85 93.1442 1841.85 80.84L1839.85 80.84C1839.85 92.9024 1837.29 101.884 1832.34 107.942L1833.88 109.208ZM1841.85 80.84L1841.85 48.16L1839.85 48.16L1839.85 80.84L1841.85 80.84ZM1840.85 47.16L1781.08 47.16L1781.08 49.16L1840.85 49.16L1840.85 47.16ZM1780.08 48.16L1780.08 80.84L1782.08 80.84L1782.08 48.16L1780.08 48.16ZM1828.81 181.232L1829.81 181.232L1829.81 180.232L1828.81 180.232L1828.81 181.232ZM1828.81 208.107L1828.81 209.107L1829.81 209.107L1829.81 208.107L1828.81 208.107ZM1714 208.107L1713 208.107L1713 209.107L1714 209.107L1714 208.107ZM1714 181.232L1714 180.232L1713 180.232L1713 181.232L1714 181.232ZM1852.25 182.522L1851.52 181.83L1851.51 181.839L1851.51 181.847L1852.25 182.522ZM1875.25 182.522L1874.51 183.196L1874.52 183.204L1874.53 183.213L1875.25 182.522ZM1875.47 207.032L1874.73 206.357L1874.72 206.366L1874.71 206.375L1875.47 207.032ZM1852.46 207.032L1853.17 206.324L1853.17 206.324L1852.46 207.032ZM1827.81 181.232L1827.81 208.107L1829.81 208.107L1829.81 181.232L1827.81 181.232ZM1828.81 207.107L1714 207.107L1714 209.107L1828.81 209.107L1828.81 207.107ZM1715 208.107L1715 181.232L1713 181.232L1713 208.107L1715 208.107ZM1714 182.232L1828.81 182.232L1828.81 180.232L1714 180.232L1714 182.232ZM1848.73 194.777C1848.73 190.128 1850.16 186.291 1852.98 183.196L1851.51 181.847C1848.31 185.346 1846.73 189.679 1846.73 194.777L1848.73 194.777ZM1852.97 183.213C1855.93 180.115 1859.54 178.577 1863.86 178.577L1863.86 176.577C1859 176.577 1854.87 178.335 1851.52 181.83L1852.97 183.213ZM1863.86 178.577C1868.17 178.577 1871.7 180.113 1874.51 183.196L1875.99 181.847C1872.78 178.337 1868.71 176.577 1863.86 176.577L1863.86 178.577ZM1874.53 183.213C1877.49 186.31 1878.98 190.141 1878.98 194.777L1880.98 194.777C1880.98 189.665 1879.32 185.327 1875.97 181.83L1874.53 183.213ZM1878.98 194.777C1878.98 199.425 1877.55 203.262 1874.73 206.357L1876.2 207.706C1879.4 204.207 1880.98 199.875 1880.98 194.777L1878.98 194.777ZM1874.71 206.375C1872.04 209.449 1868.66 210.977 1864.5 210.977L1864.5 212.977C1869.23 212.977 1873.16 211.207 1876.22 207.688L1874.71 206.375ZM1864.5 210.977C1860.03 210.977 1856.27 209.431 1853.17 206.324L1851.75 207.739C1855.24 211.226 1859.51 212.977 1864.5 212.977L1864.5 210.977ZM1853.17 206.324C1850.23 203.383 1848.73 199.564 1848.73 194.777L1846.73 194.777C1846.73 200.022 1848.39 204.374 1851.75 207.739L1853.17 206.324ZM1720.02 274.77L1719.14 274.301L1719.14 274.301L1720.02 274.77ZM1740.88 252.625L1740.37 251.763L1740.36 251.766L1740.88 252.625ZM1822.58 274.555L1823.46 274.086L1823.46 274.081L1822.58 274.555ZM1823.22 336.475L1822.34 335.998L1822.34 336.004L1823.22 336.475ZM1803.44 355.825L1802.58 356.329L1803.05 357.139L1803.89 356.719L1803.44 355.825ZM1791.4 335.185L1790.87 334.336L1790.05 334.849L1790.54 335.689L1791.4 335.185ZM1803.23 322.715L1802.35 322.227L1802.34 322.242L1802.34 322.258L1803.23 322.715ZM1797.42 281.65L1796.71 282.349L1796.71 282.357L1797.42 281.65ZM1745.18 281.435L1744.48 280.72L1744.47 280.728L1744.46 280.736L1745.18 281.435ZM1739.37 322.715L1738.49 323.183L1738.49 323.192L1739.37 322.715ZM1751.41 335.185L1752.27 335.689L1752.76 334.849L1751.94 334.336L1751.41 335.185ZM1739.37 355.825L1738.91 356.713L1739.76 357.15L1740.23 356.329L1739.37 355.825ZM1719.38 336.26L1718.5 336.737L1718.5 336.742L1719.38 336.26ZM1713.5 306.805C1713.5 295.053 1715.97 284.539 1720.9 275.239L1719.14 274.301C1714.04 283.921 1711.5 294.763 1711.5 306.805L1713.5 306.805ZM1720.9 275.239C1725.84 265.934 1732.66 258.69 1741.39 253.484L1740.36 251.766C1731.31 257.167 1724.24 264.686 1719.14 274.301L1720.9 275.239ZM1741.38 253.487C1750.25 248.281 1760.24 245.67 1771.41 245.67L1771.41 243.67C1759.92 243.67 1749.56 246.362 1740.37 251.763L1741.38 253.487ZM1771.41 245.67C1782.57 245.67 1792.49 248.281 1801.21 253.484L1802.23 251.766C1793.18 246.362 1782.89 243.67 1771.41 243.67L1771.41 245.67ZM1801.21 253.484C1809.94 258.692 1816.76 265.868 1821.69 275.029L1823.46 274.081C1818.36 264.609 1811.28 257.164 1802.23 251.766L1801.21 253.484ZM1821.69 275.024C1826.62 284.322 1829.1 294.908 1829.1 306.805L1831.1 306.805C1831.1 294.622 1828.56 283.708 1823.46 274.086L1821.69 275.024ZM1829.1 306.805C1829.1 317.991 1826.84 327.712 1822.34 335.998L1824.1 336.952C1828.78 328.325 1831.1 318.265 1831.1 306.805L1829.1 306.805ZM1822.34 336.004C1817.85 344.424 1811.4 350.725 1802.99 354.931L1803.89 356.719C1812.68 352.325 1819.42 345.726 1824.1 336.946L1822.34 336.004ZM1804.3 355.321L1792.26 334.681L1790.54 335.689L1802.58 356.329L1804.3 355.321ZM1791.93 336.034C1797.37 332.653 1801.44 328.367 1804.11 323.172L1802.34 322.258C1799.85 327.097 1796.04 331.124 1790.87 334.336L1791.93 336.034ZM1804.1 323.203C1806.91 318.172 1808.31 312.628 1808.31 306.59L1806.31 306.59C1806.31 312.305 1804.99 317.511 1802.35 322.227L1804.1 323.203ZM1808.31 306.59C1808.31 296.314 1804.92 287.739 1798.13 280.943L1796.71 282.357C1803.1 288.748 1806.31 296.8 1806.31 306.59L1808.31 306.59ZM1798.13 280.951C1791.46 274.13 1782.51 270.76 1771.41 270.76L1771.41 272.76C1782.08 272.76 1790.48 275.983 1796.71 282.349L1798.13 280.951ZM1771.41 270.76C1760.3 270.76 1751.29 274.055 1744.48 280.72L1745.87 282.15C1752.25 275.915 1760.72 272.76 1771.41 272.76L1771.41 270.76ZM1744.46 280.736C1737.81 287.536 1734.5 296.181 1734.5 306.59L1736.5 306.59C1736.5 296.645 1739.64 288.521 1745.89 282.134L1744.46 280.736ZM1734.5 306.59C1734.5 312.619 1735.82 318.156 1738.49 323.183L1740.25 322.247C1737.76 317.527 1736.5 312.315 1736.5 306.59L1734.5 306.59ZM1738.49 323.192C1741.3 328.375 1745.45 332.655 1750.88 336.034L1751.94 334.336C1746.77 331.122 1742.88 327.088 1740.25 322.238L1738.49 323.192ZM1750.55 334.681L1738.51 355.321L1740.23 356.329L1752.27 335.689L1750.55 334.681ZM1739.83 354.937C1731.41 350.586 1724.89 344.207 1720.25 335.778L1718.5 336.742C1723.32 345.513 1730.13 352.178 1738.91 356.713L1739.83 354.937ZM1720.25 335.783C1715.76 327.495 1713.5 317.846 1713.5 306.805L1711.5 306.805C1711.5 318.124 1713.82 328.112 1718.5 336.737L1720.25 335.783ZM1763.24 435.627L1763.86 436.405L1764.7 435.725L1763.96 434.94L1763.24 435.627ZM1744.32 415.632L1745.04 414.945L1744.75 414.632L1744.32 414.632L1744.32 415.632ZM1714 415.632L1713 415.632L1713 416.632L1714 416.632L1714 415.632ZM1714 388.757L1714 387.757L1713 387.757L1713 388.757L1714 388.757ZM1873.53 388.757L1874.53 388.757L1874.53 387.757L1873.53 387.757L1873.53 388.757ZM1873.53 415.632L1873.53 416.632L1874.53 416.632L1874.53 415.632L1873.53 415.632ZM1777.21 415.632L1777.21 414.632L1774.92 414.632L1776.48 416.312L1777.21 415.632ZM1828.81 471.317L1829.81 471.317L1829.81 470.925L1829.54 470.637L1828.81 471.317ZM1828.81 503.567L1828.1 504.276L1829.81 505.974L1829.81 503.567L1828.81 503.567ZM1780.65 455.622L1781.36 454.913L1780.73 454.288L1780.03 454.836L1780.65 455.622ZM1714 508.082L1713 508.082L1713 510.142L1714.62 508.868L1714 508.082ZM1714 475.402L1713.37 474.624L1713 474.924L1713 475.402L1714 475.402ZM1763.96 434.94L1745.04 414.945L1743.59 416.319L1762.51 436.314L1763.96 434.94ZM1744.32 414.632L1714 414.632L1714 416.632L1744.32 416.632L1744.32 414.632ZM1715 415.632L1715 388.757L1713 388.757L1713 415.632L1715 415.632ZM1714 389.757L1873.53 389.757L1873.53 387.757L1714 387.757L1714 389.757ZM1872.53 388.757L1872.53 415.632L1874.53 415.632L1874.53 388.757L1872.53 388.757ZM1873.53 414.632L1777.21 414.632L1777.21 416.632L1873.53 416.632L1873.53 414.632ZM1776.48 416.312L1828.08 471.997L1829.54 470.637L1777.94 414.952L1776.48 416.312ZM1827.81 471.317L1827.81 503.567L1829.81 503.567L1829.81 471.317L1827.81 471.317ZM1829.52 502.858L1781.36 454.913L1779.94 456.331L1828.1 504.276L1829.52 502.858ZM1780.03 454.836L1713.38 507.296L1714.62 508.868L1781.27 456.408L1780.03 454.836ZM1715 508.082L1715 475.402L1713 475.402L1713 508.082L1715 508.082ZM1714.63 476.18L1763.86 436.405L1762.61 434.849L1713.37 474.624L1714.63 476.18ZM1748.83 636.382L1749.23 637.3L1749.83 637.039L1749.83 636.382L1748.83 636.382ZM1748.83 561.132L1749.83 561.132L1749.83 560.471L1749.22 560.212L1748.83 561.132ZM1714 546.297L1713 546.297L1713 546.958L1713.61 547.217L1714 546.297ZM1714 517.487L1714.41 516.575L1713 515.94L1713 517.487L1714 517.487ZM1864.5 585.212L1865.5 585.212L1865.5 584.565L1864.91 584.3L1864.5 585.212ZM1864.5 612.732L1864.91 613.643L1865.5 613.377L1865.5 612.732L1864.5 612.732ZM1714 680.672L1713 680.672L1713 682.22L1714.41 681.583L1714 680.672ZM1714 651.432L1713.6 650.514L1713 650.774L1713 651.432L1714 651.432ZM1770.76 627.137L1769.76 627.137L1769.76 628.657L1771.16 628.055L1770.76 627.137ZM1836.55 598.757L1836.95 599.675L1839.08 598.753L1836.94 597.837L1836.55 598.757ZM1770.76 570.592L1771.15 569.672L1769.76 569.076L1769.76 570.592L1770.76 570.592ZM1749.83 636.382L1749.83 561.132L1747.83 561.132L1747.83 636.382L1749.83 636.382ZM1749.22 560.212L1714.39 545.377L1713.61 547.217L1748.44 562.052L1749.22 560.212ZM1715 546.297L1715 517.487L1713 517.487L1713 546.297L1715 546.297ZM1713.59 518.398L1864.09 586.123L1864.91 584.3L1714.41 516.575L1713.59 518.398ZM1863.5 585.212L1863.5 612.732L1865.5 612.732L1865.5 585.212L1863.5 585.212ZM1864.09 611.82L1713.59 679.76L1714.41 681.583L1864.91 613.643L1864.09 611.82ZM1715 680.672L1715 651.432L1713 651.432L1713 680.672L1715 680.672ZM1714.4 652.35L1749.23 637.3L1748.43 635.464L1713.6 650.514L1714.4 652.35ZM1771.16 628.055L1836.95 599.675L1836.15 597.838L1770.36 626.218L1771.16 628.055ZM1836.94 597.837L1771.15 569.672L1770.37 571.511L1836.16 599.676L1836.94 597.837ZM1769.76 570.592L1769.76 627.137L1771.76 627.137L1771.76 570.592L1769.76 570.592ZM1828.81 707.982L1829.81 707.982L1829.81 706.982L1828.81 706.982L1828.81 707.982ZM1828.81 734.857L1828.81 735.857L1829.81 735.857L1829.81 734.857L1828.81 734.857ZM1714 734.857L1713 734.857L1713 735.857L1714 735.857L1714 734.857ZM1714 707.982L1714 706.982L1713 706.982L1713 707.982L1714 707.982ZM1852.25 709.272L1851.52 708.58L1851.51 708.589L1851.51 708.597L1852.25 709.272ZM1875.25 709.272L1874.51 709.946L1874.52 709.954L1874.53 709.963L1875.25 709.272ZM1875.47 733.782L1874.73 733.107L1874.72 733.116L1874.71 733.125L1875.47 733.782ZM1852.46 733.782L1853.17 733.074L1853.17 733.074L1852.46 733.782ZM1827.81 707.982L1827.81 734.857L1829.81 734.857L1829.81 707.982L1827.81 707.982ZM1828.81 733.857L1714 733.857L1714 735.857L1828.81 735.857L1828.81 733.857ZM1715 734.857L1715 707.982L1713 707.982L1713 734.857L1715 734.857ZM1714 708.982L1828.81 708.982L1828.81 706.982L1714 706.982L1714 708.982ZM1848.73 721.527C1848.73 716.878 1850.16 713.041 1852.98 709.946L1851.51 708.597C1848.31 712.096 1846.73 716.429 1846.73 721.527L1848.73 721.527ZM1852.97 709.963C1855.93 706.865 1859.54 705.327 1863.86 705.327L1863.86 703.327C1859 703.327 1854.87 705.085 1851.52 708.58L1852.97 709.963ZM1863.86 705.327C1868.17 705.327 1871.7 706.863 1874.51 709.946L1875.99 708.597C1872.78 705.087 1868.71 703.327 1863.86 703.327L1863.86 705.327ZM1874.53 709.963C1877.49 713.06 1878.98 716.891 1878.98 721.527L1880.98 721.527C1880.98 716.415 1879.32 712.077 1875.97 708.58L1874.53 709.963ZM1878.98 721.527C1878.98 726.175 1877.55 730.012 1874.73 733.107L1876.2 734.456C1879.4 730.957 1880.98 726.625 1880.98 721.527L1878.98 721.527ZM1874.71 733.125C1872.04 736.199 1868.66 737.727 1864.5 737.727L1864.5 739.727C1869.23 739.727 1873.16 737.957 1876.22 734.438L1874.71 733.125ZM1864.5 737.727C1860.03 737.727 1856.27 736.181 1853.17 733.074L1851.75 734.489C1855.24 737.976 1859.51 739.727 1864.5 739.727L1864.5 737.727ZM1853.17 733.074C1850.23 730.133 1848.73 726.314 1848.73 721.527L1846.73 721.527C1846.73 726.772 1848.39 731.124 1851.75 734.489L1853.17 733.074ZM1817.42 960.19L1816.71 959.483L1816.7 959.489L1817.42 960.19ZM1714 972.875L1713 972.875L1713 973.875L1714 973.875L1714 972.875ZM1714 946L1714 945L1713 945L1713 946L1714 946ZM1798.93 939.335L1798.27 938.577L1798.26 938.586L1798.93 939.335ZM1797.64 898.485L1796.96 899.218L1796.96 899.227L1797.64 898.485ZM1714 890.315L1713 890.315L1713 891.315L1714 891.315L1714 890.315ZM1714 863.44L1714 862.44L1713 862.44L1713 863.44L1714 863.44ZM1798.93 856.775L1798.27 856.017L1798.26 856.026L1798.93 856.775ZM1797.85 815.71L1798.53 814.977L1798.52 814.968L1797.85 815.71ZM1714 807.755L1713 807.755L1713 808.755L1714 808.755L1714 807.755ZM1714 780.88L1714 779.88L1713 779.88L1713 780.88L1714 780.88ZM1828.81 780.88L1829.81 780.88L1829.81 779.88L1828.81 779.88L1828.81 780.88ZM1828.81 806.465L1828.81 807.465L1829.81 807.465L1829.81 806.465L1828.81 806.465ZM1814.19 806.465L1814.19 805.465L1811.43 805.465L1813.55 807.233L1814.19 806.465ZM1826.02 822.59L1825.09 822.979L1825.09 822.979L1826.02 822.59ZM1825.16 866.88L1824.26 866.433L1824.25 866.444L1824.25 866.456L1825.16 866.88ZM1810.97 882.79L1810.44 881.938L1809.22 882.689L1810.35 883.576L1810.97 882.79ZM1824.94 901.065L1824.03 901.47L1824.03 901.477L1824.03 901.484L1824.94 901.065ZM1829.1 925.79C1829.1 940.061 1824.94 951.252 1816.71 959.483L1818.12 960.897C1826.8 952.215 1831.1 940.472 1831.1 925.79L1829.1 925.79ZM1816.7 959.489C1808.64 967.687 1796.4 971.875 1779.79 971.875L1779.79 973.875C1796.72 973.875 1809.56 969.607 1818.13 960.891L1816.7 959.489ZM1779.79 971.875L1714 971.875L1714 973.875L1779.79 973.875L1779.79 971.875ZM1715 972.875L1715 946L1713 946L1713 972.875L1715 972.875ZM1714 947L1776.35 947L1776.35 945L1714 945L1714 947ZM1776.35 947C1786.51 947 1794.32 944.753 1799.59 940.084L1798.26 938.586C1793.5 942.804 1786.26 945 1776.35 945L1776.35 947ZM1799.58 940.093C1805.01 935.418 1807.67 928.734 1807.67 920.2L1805.67 920.2C1805.67 928.292 1803.16 934.365 1798.27 938.577L1799.58 940.093ZM1807.67 920.2C1807.67 910.923 1804.56 903.402 1798.31 897.743L1796.96 899.227C1802.75 904.461 1805.67 911.417 1805.67 920.2L1807.67 920.2ZM1798.31 897.752C1792.19 892.078 1783.46 889.315 1772.27 889.315L1772.27 891.315C1783.15 891.315 1791.32 893.999 1796.96 899.218L1798.31 897.752ZM1772.27 889.315L1714 889.315L1714 891.315L1772.27 891.315L1772.27 889.315ZM1715 890.315L1715 863.44L1713 863.44L1713 890.315L1715 890.315ZM1714 864.44L1776.35 864.44L1776.35 862.44L1714 862.44L1714 864.44ZM1776.35 864.44C1786.51 864.44 1794.32 862.193 1799.59 857.524L1798.26 856.026C1793.5 860.244 1786.26 862.44 1776.35 862.44L1776.35 864.44ZM1799.58 857.533C1805.01 852.858 1807.67 846.174 1807.67 837.64L1805.67 837.64C1805.67 845.732 1803.16 851.805 1798.27 856.017L1799.58 857.533ZM1807.67 837.64C1807.67 828.233 1804.64 820.641 1798.53 814.977L1797.17 816.443C1802.81 821.673 1805.67 828.701 1805.67 837.64L1807.67 837.64ZM1798.52 814.968C1792.4 809.441 1783.59 806.755 1772.27 806.755L1772.27 808.755C1783.3 808.755 1791.55 811.372 1797.18 816.452L1798.52 814.968ZM1772.27 806.755L1714 806.755L1714 808.755L1772.27 808.755L1772.27 806.755ZM1715 807.755L1715 780.88L1713 780.88L1713 807.755L1715 807.755ZM1714 781.88L1828.81 781.88L1828.81 779.88L1714 779.88L1714 781.88ZM1827.81 780.88L1827.81 806.465L1829.81 806.465L1829.81 780.88L1827.81 780.88ZM1828.81 805.465L1814.19 805.465L1814.19 807.465L1828.81 807.465L1828.81 805.465ZM1813.55 807.233C1818.58 811.427 1822.43 816.67 1825.09 822.979L1826.94 822.201C1824.15 815.61 1820.12 810.103 1814.83 805.697L1813.55 807.233ZM1825.09 822.979C1827.76 829.291 1829.1 836.323 1829.1 844.09L1831.1 844.09C1831.1 836.09 1829.72 828.789 1826.94 822.201L1825.09 822.979ZM1829.1 844.09C1829.1 852.561 1827.48 860 1824.26 866.433L1826.05 867.327C1829.43 860.574 1831.1 852.819 1831.1 844.09L1829.1 844.09ZM1824.25 866.456C1821.18 873.017 1816.58 878.171 1810.44 881.938L1811.49 883.642C1817.96 879.669 1822.82 874.217 1826.06 867.304L1824.25 866.456ZM1810.35 883.576C1816.23 888.199 1820.79 894.156 1824.03 901.47L1825.85 900.661C1822.5 893.067 1817.74 886.841 1811.58 882.004L1810.35 883.576ZM1824.03 901.484C1827.41 908.793 1829.1 916.89 1829.1 925.79L1831.1 925.79C1831.1 916.63 1829.35 908.243 1825.85 900.646L1824.03 901.484Z" fill="url(#paint1_linear_60_330)"/>
<path d="M273.642 319.9C273.642 321.39 272.434 322.598 270.944 322.598C269.453 322.598 268.245 321.39 268.245 319.9L268.245 299.409C268.245 297.919 269.453 296.711 270.944 296.711C272.434 296.711 273.642 297.919 273.642 299.409L273.642 319.9Z" fill="#131313"/>
<path d="M260.698 312.352C259.208 312.352 258 311.144 258 309.654C258 308.164 259.208 306.956 260.698 306.956L281.189 306.956C282.679 306.956 283.887 308.164 283.887 309.654C283.887 311.144 282.679 312.352 281.189 312.352L260.698 312.352Z" fill="#131313"/>
<path d="M693.926 275.739C693.926 277.229 692.718 278.437 691.228 278.437C689.737 278.437 688.529 277.229 688.529 275.739L688.529 255.248C688.529 253.758 689.737 252.55 691.228 252.55C692.718 252.55 693.926 253.758 693.926 255.248L693.926 275.739Z" fill="#131313"/>
<path d="M680.982 268.192C679.492 268.192 678.284 266.984 678.284 265.494C678.284 264.004 679.492 262.796 680.982 262.796L701.473 262.796C702.963 262.796 704.171 264.004 704.171 265.494C704.171 266.984 702.963 268.192 701.473 268.192L680.982 268.192Z" fill="#131313"/>
<path d="M323.893 903.12C323.893 904.61 322.685 905.818 321.195 905.818C319.705 905.818 318.497 904.61 318.497 903.12L318.497 882.629C318.497 881.139 319.705 879.931 321.195 879.931C322.685 879.931 323.893 881.139 323.893 882.629L323.893 903.12Z" fill="#131313"/>
<path d="M310.95 895.572C309.459 895.572 308.251 894.364 308.251 892.874C308.251 891.384 309.459 890.176 310.95 890.176L331.44 890.176C332.93 890.176 334.138 891.384 334.138 892.874C334.138 894.364 332.93 895.572 331.44 895.572L310.95 895.572Z" fill="#131313"/>
<path d="M728.949 700.592C728.949 702.082 727.741 703.29 726.251 703.29C724.761 703.29 723.553 702.082 723.553 700.592L723.553 680.101C723.553 678.611 724.761 677.403 726.251 677.403C727.741 677.403 728.949 678.611 728.949 680.101L728.949 700.592Z" fill="#131313"/>
<path d="M716.006 693.045C714.516 693.045 713.308 691.837 713.308 690.346C713.308 688.856 714.516 687.648 716.006 687.648L736.497 687.648C737.987 687.648 739.195 688.856 739.195 690.346C739.195 691.837 737.987 693.045 736.497 693.045L716.006 693.045Z" fill="#131313"/>
<path d="M788.337 903.12C788.337 904.61 787.129 905.818 785.639 905.818C784.149 905.818 782.941 904.61 782.941 903.12L782.941 882.629C782.941 881.139 784.149 879.931 785.639 879.931C787.129 879.931 788.337 881.139 788.337 882.629L788.337 903.12Z" fill="#131313"/>
<path d="M775.394 895.572C773.904 895.572 772.695 894.364 772.695 892.874C772.695 891.384 773.904 890.176 775.394 890.176L795.884 890.176C797.375 890.176 798.583 891.384 798.583 892.874C798.583 894.364 797.375 895.572 795.884 895.572L775.394 895.572Z" fill="#131313"/>
<path d="M1184.26 335.127C1184.26 336.618 1183.05 337.826 1181.56 337.826C1180.07 337.826 1178.86 336.618 1178.86 335.127L1178.86 314.637C1178.86 313.147 1180.07 311.938 1181.56 311.938C1183.05 311.938 1184.26 313.147 1184.26 314.637L1184.26 335.127Z" fill="#131313"/>
<path d="M1171.31 327.58C1169.82 327.58 1168.62 326.372 1168.62 324.882C1168.62 323.392 1169.82 322.184 1171.31 322.184L1191.8 322.184C1193.29 322.184 1194.5 323.392 1194.5 324.882C1194.5 326.372 1193.29 327.58 1191.8 327.58L1171.31 327.58Z" fill="#131313"/>
<path d="M1268.01 254.421C1268.01 255.911 1266.8 257.119 1265.31 257.119C1263.82 257.119 1262.61 255.911 1262.61 254.421L1262.61 233.93C1262.61 232.44 1263.82 231.232 1265.31 231.232C1266.8 231.232 1268.01 232.44 1268.01 233.93L1268.01 254.421Z" fill="#131313"/>
<path d="M1255.07 246.873C1253.58 246.873 1252.37 245.665 1252.37 244.175C1252.37 242.685 1253.58 241.477 1255.07 241.477L1275.56 241.477C1277.05 241.477 1278.25 242.685 1278.25 244.175C1278.25 245.665 1277.05 246.873 1275.56 246.873L1255.07 246.873Z" fill="#131313"/>
<path d="M1647.18 365.583C1647.18 367.073 1645.97 368.281 1644.48 368.281C1642.99 368.281 1641.78 367.073 1641.78 365.583L1641.78 345.092C1641.78 343.602 1642.99 342.394 1644.48 342.394C1645.97 342.394 1647.18 343.602 1647.18 345.092L1647.18 365.583Z" fill="#131313"/>
<path d="M1634.24 358.036C1632.74 358.036 1631.54 356.828 1631.54 355.338C1631.54 353.847 1632.74 352.639 1634.24 352.639L1654.73 352.639C1656.22 352.639 1657.42 353.847 1657.42 355.338C1657.42 356.828 1656.22 358.036 1654.73 358.036L1634.24 358.036Z" fill="#131313"/>
<path d="M1249.74 915.302C1249.74 916.792 1248.53 918 1247.04 918C1245.55 918 1244.34 916.792 1244.34 915.302L1244.34 894.811C1244.34 893.321 1245.55 892.113 1247.04 892.113C1248.53 892.113 1249.74 893.321 1249.74 894.811L1249.74 915.302Z" fill="#131313"/>
<path d="M1236.79 907.755C1235.3 907.755 1234.09 906.546 1234.09 905.056C1234.09 903.566 1235.3 902.358 1236.79 902.358L1257.28 902.358C1258.77 902.358 1259.98 903.566 1259.98 905.056C1259.98 906.546 1258.77 907.755 1257.28 907.755L1236.79 907.755Z" fill="#131313"/>
<path d="M1592.36 898.552C1592.36 900.042 1591.15 901.25 1589.66 901.25C1588.17 901.25 1586.96 900.042 1586.96 898.552L1586.96 878.061C1586.96 876.571 1588.17 875.363 1589.66 875.363C1591.15 875.363 1592.36 876.571 1592.36 878.061L1592.36 898.552Z" fill="#131313"/>
<path d="M1579.42 891.005C1577.93 891.005 1576.72 889.796 1576.72 888.306C1576.72 886.816 1577.93 885.608 1579.42 885.608L1599.91 885.608C1601.4 885.608 1602.6 886.816 1602.6 888.306C1602.6 889.796 1601.4 891.005 1599.91 891.005L1579.42 891.005Z" fill="#131313"/>
<defs>
<linearGradient id="paint0_linear_60_330" x1="117.525" y1="6.19762e-06" x2="117.525" y2="1021" gradientUnits="userSpaceOnUse">
<stop stop-color="#FF2E00" stop-opacity="0"/>
<stop offset="1" stop-color="#BD00FF"/>
</linearGradient>
<linearGradient id="paint1_linear_60_330" x1="1792.53" y1="6.26212e-06" x2="1792.53" y2="1033" gradientUnits="userSpaceOnUse">
<stop stop-color="#BD00FF" stop-opacity="0"/>
<stop offset="1" stop-color="#FF2E00" stop-opacity="0.68"/>
<stop offset="1" stop-color="#FF2E00"/>
</linearGradient>
</defs>
</svg>
