<svg width="1920" height="955" viewBox="0 0 1920 955" fill="none" xmlns="http://www.w3.org/2000/svg">
<path d="M0 0H1920V955H0V0Z" fill="#0F0F0F"/>
<g opacity="0.3">
<path d="M284.818 287.912C284.818 289.319 283.673 290.459 282.262 290.459C280.85 290.459 279.706 289.319 279.706 287.912L279.706 268.572C279.706 267.165 280.85 266.025 282.262 266.025C283.673 266.025 284.818 267.165 284.818 268.572L284.818 287.912Z" fill="#222222"/>
<path d="M272.556 280.789C271.144 280.789 270 279.648 270 278.242C270 276.835 271.144 275.695 272.556 275.695L291.967 275.695C293.379 275.695 294.523 276.835 294.523 278.242C294.523 279.648 293.379 280.789 291.967 280.789L272.556 280.789Z" fill="#222222"/>
<path d="M838.318 175.823C838.318 177.229 837.173 178.37 835.762 178.37C834.35 178.37 833.206 177.229 833.206 175.823L833.206 156.483C833.206 155.076 834.35 153.936 835.762 153.936C837.173 153.936 838.318 155.076 838.318 156.483L838.318 175.823Z" fill="#9308D2"/>
<path d="M826.056 168.699C824.644 168.699 823.5 167.559 823.5 166.153C823.5 164.746 824.644 163.606 826.056 163.606L845.467 163.606C846.879 163.606 848.023 164.746 848.023 166.153C848.023 167.559 846.879 168.699 845.467 168.699L826.056 168.699Z" fill="#9308D2"/>
<path d="M1667.82 712.357C1667.82 713.763 1666.67 714.903 1665.26 714.903C1663.85 714.903 1662.71 713.763 1662.71 712.357L1662.71 693.016C1662.71 691.61 1663.85 690.469 1665.26 690.469C1666.67 690.469 1667.82 691.61 1667.82 693.016L1667.82 712.357Z" fill="#9308D2"/>
<path d="M1655.56 705.233C1654.14 705.233 1653 704.093 1653 702.686C1653 701.28 1654.14 700.14 1655.56 700.14L1674.97 700.14C1676.38 700.14 1677.52 701.28 1677.52 702.686C1677.52 704.093 1676.38 705.233 1674.97 705.233L1655.56 705.233Z" fill="#9308D2"/>
<path d="M1117.32 888.71C1117.32 890.117 1116.17 891.257 1114.76 891.257C1113.35 891.257 1112.21 890.117 1112.21 888.71L1112.21 869.37C1112.21 867.963 1113.35 866.823 1114.76 866.823C1116.17 866.823 1117.32 867.963 1117.32 869.37L1117.32 888.71Z" fill="#222222"/>
<path d="M1105.06 881.587C1103.64 881.587 1102.5 880.447 1102.5 879.04C1102.5 877.634 1103.64 876.493 1105.06 876.493L1124.47 876.493C1125.88 876.493 1127.02 877.634 1127.02 879.04C1127.02 880.447 1125.88 881.587 1124.47 881.587L1105.06 881.587Z" fill="#222222"/>
<path d="M205.318 622.685C205.318 624.092 204.173 625.232 202.762 625.232C201.35 625.232 200.206 624.092 200.206 622.685L200.206 603.345C200.206 601.938 201.35 600.798 202.762 600.798C204.173 600.798 205.318 601.938 205.318 603.345L205.318 622.685Z" fill="#222222"/>
<path d="M193.056 615.562C191.644 615.562 190.5 614.422 190.5 613.015C190.5 611.609 191.644 610.468 193.056 610.468L212.467 610.468C213.879 610.468 215.023 611.609 215.023 613.015C215.023 614.422 213.879 615.562 212.467 615.562L193.056 615.562Z" fill="#222222"/>
<path d="M1702.32 187.779C1702.32 189.186 1701.17 190.326 1699.76 190.326C1698.35 190.326 1697.21 189.186 1697.21 187.779L1697.21 168.439C1697.21 167.032 1698.35 165.892 1699.76 165.892C1701.17 165.892 1702.32 167.032 1702.32 168.439L1702.32 187.779Z" fill="#222222"/>
<path d="M1690.06 180.656C1688.64 180.656 1687.5 179.515 1687.5 178.109C1687.5 176.702 1688.64 175.562 1690.06 175.562L1709.47 175.562C1710.88 175.562 1712.02 176.702 1712.02 178.109C1712.02 179.515 1710.88 180.656 1709.47 180.656L1690.06 180.656Z" fill="#222222"/>
<path d="M560.818 926.073C560.818 927.48 559.673 928.62 558.262 928.62C556.85 928.62 555.706 927.48 555.706 926.073L555.706 906.733C555.706 905.326 556.85 904.186 558.262 904.186C559.673 904.186 560.818 905.326 560.818 906.733L560.818 926.073Z" fill="#AE1293"/>
<path d="M548.556 918.95C547.144 918.95 546 917.81 546 916.403C546 914.997 547.144 913.856 548.556 913.856L567.967 913.856C569.379 913.856 570.523 914.997 570.523 916.403C570.523 917.81 569.379 918.95 567.967 918.95L548.556 918.95Z" fill="#AE1293"/>
<path d="M775.318 610.729C775.318 612.136 774.173 613.276 772.762 613.276C771.35 613.276 770.206 612.136 770.206 610.729L770.206 591.389C770.206 589.982 771.35 588.842 772.762 588.842C774.173 588.842 775.318 589.982 775.318 591.389L775.318 610.729Z" fill="#AE1293"/>
<path d="M763.056 603.606C761.644 603.606 760.5 602.465 760.5 601.059C760.5 599.652 761.644 598.512 763.056 598.512L782.467 598.512C783.879 598.512 785.023 599.652 785.023 601.059C785.023 602.465 783.879 603.606 782.467 603.606L763.056 603.606Z" fill="#AE1293"/>
<path d="M1108.32 249.055C1108.32 250.461 1107.17 251.601 1105.76 251.601C1104.35 251.601 1103.21 250.461 1103.21 249.055L1103.21 229.714C1103.21 228.308 1104.35 227.167 1105.76 227.167C1107.17 227.167 1108.32 228.308 1108.32 229.714L1108.32 249.055Z" fill="#222222"/>
<path d="M1096.06 241.931C1094.64 241.931 1093.5 240.791 1093.5 239.384C1093.5 237.978 1094.64 236.838 1096.06 236.838L1115.47 236.838C1116.88 236.838 1118.02 237.978 1118.02 239.384C1118.02 240.791 1116.88 241.931 1115.47 241.931L1096.06 241.931Z" fill="#222222"/>
<path d="M1165.32 926.073C1165.32 927.48 1164.17 928.62 1162.76 928.62C1161.35 928.62 1160.21 927.48 1160.21 926.073L1160.21 906.733C1160.21 905.326 1161.35 904.186 1162.76 904.186C1164.17 904.186 1165.32 905.326 1165.32 906.733L1165.32 926.073Z" fill="#CE1F47"/>
<path d="M1153.06 918.95C1151.64 918.95 1150.5 917.81 1150.5 916.403C1150.5 914.997 1151.64 913.856 1153.06 913.856L1172.47 913.856C1173.88 913.856 1175.02 914.997 1175.02 916.403C1175.02 917.81 1173.88 918.95 1172.47 918.95L1153.06 918.95Z" fill="#CE1F47"/>
<path d="M1400.82 196.746C1400.82 198.153 1399.67 199.293 1398.26 199.293C1396.85 199.293 1395.71 198.153 1395.71 196.746L1395.71 177.406C1395.71 175.999 1396.85 174.859 1398.26 174.859C1399.67 174.859 1400.82 175.999 1400.82 177.406L1400.82 196.746Z" fill="#222222"/>
<path d="M1388.56 189.623C1387.14 189.623 1386 188.483 1386 187.076C1386 185.67 1387.14 184.529 1388.56 184.529L1407.97 184.529C1409.38 184.529 1410.52 185.67 1410.52 187.076C1410.52 188.483 1409.38 189.623 1407.97 189.623L1388.56 189.623Z" fill="#222222"/>
<path d="M272.818 736.269C272.818 737.675 271.673 738.816 270.262 738.816C268.85 738.816 267.706 737.675 267.706 736.269L267.706 716.929C267.706 715.522 268.85 714.382 270.262 714.382C271.673 714.382 272.818 715.522 272.818 716.929L272.818 736.269Z" fill="#CE1F47"/>
<path d="M260.556 729.145C259.144 729.145 258 728.005 258 726.599C258 725.192 259.144 724.052 260.556 724.052L279.967 724.052C281.379 724.052 282.523 725.192 282.523 726.599C282.523 728.005 281.379 729.145 279.967 729.145L260.556 729.145Z" fill="#CE1F47"/>
<path d="M1747.32 827.435C1747.32 828.841 1746.17 829.982 1744.76 829.982C1743.35 829.982 1742.21 828.841 1742.21 827.435L1742.21 808.095C1742.21 806.688 1743.35 805.548 1744.76 805.548C1746.17 805.548 1747.32 806.688 1747.32 808.095L1747.32 827.435Z" fill="#222222"/>
<path d="M1735.06 820.312C1733.64 820.312 1732.5 819.171 1732.5 817.765C1732.5 816.358 1733.64 815.218 1735.06 815.218L1754.47 815.218C1755.88 815.218 1757.02 816.358 1757.02 817.765C1757.02 819.171 1755.88 820.312 1754.47 820.312L1735.06 820.312Z" fill="#222222"/>
<path d="M248.818 319.297C248.818 320.704 247.673 321.844 246.262 321.844C244.85 321.844 243.706 320.704 243.706 319.297L243.706 299.957C243.706 298.55 244.85 297.41 246.262 297.41C247.673 297.41 248.818 298.55 248.818 299.957L248.818 319.297Z" fill="#222222"/>
<path d="M236.556 312.174C235.144 312.174 234 311.033 234 309.627C234 308.22 235.144 307.08 236.556 307.08L255.967 307.08C257.379 307.08 258.523 308.22 258.523 309.627C258.523 311.033 257.379 312.174 255.967 312.174L236.556 312.174Z" fill="#222222"/>
<path d="M1244.82 524.047C1244.82 525.453 1243.67 526.594 1242.26 526.594C1240.85 526.594 1239.71 525.453 1239.71 524.047L1239.71 504.706C1239.71 503.3 1240.85 502.16 1242.26 502.16C1243.67 502.16 1244.82 503.3 1244.82 504.706L1244.82 524.047Z" fill="#222222"/>
<path d="M1232.56 516.923C1231.14 516.923 1230 515.783 1230 514.377C1230 512.97 1231.14 511.83 1232.56 511.83L1251.97 511.83C1253.38 511.83 1254.52 512.97 1254.52 514.377C1254.52 515.783 1253.38 516.923 1251.97 516.923L1232.56 516.923Z" fill="#222222"/>
<path d="M746.818 631.652C746.818 633.059 745.673 634.199 744.262 634.199C742.85 634.199 741.706 633.059 741.706 631.652L741.706 612.312C741.706 610.905 742.85 609.765 744.262 609.765C745.673 609.765 746.818 610.905 746.818 612.312L746.818 631.652Z" fill="#222222"/>
<path d="M734.556 624.529C733.144 624.529 732 623.389 732 621.982C732 620.576 733.144 619.435 734.556 619.435L753.967 619.435C755.379 619.435 756.523 620.576 756.523 621.982C756.523 623.389 755.379 624.529 753.967 624.529L734.556 624.529Z" fill="#222222"/>
<path d="M1442.82 163.867C1442.82 165.273 1441.67 166.413 1440.26 166.413C1438.85 166.413 1437.71 165.273 1437.71 163.867L1437.71 144.526C1437.71 143.12 1438.85 141.98 1440.26 141.98C1441.67 141.98 1442.82 143.12 1442.82 144.526L1442.82 163.867Z" fill="#D72331"/>
<path d="M1430.56 156.743C1429.14 156.743 1428 155.603 1428 154.197C1428 152.79 1429.14 151.65 1430.56 151.65L1449.97 151.65C1451.38 151.65 1452.52 152.79 1452.52 154.197C1452.52 155.603 1451.38 156.743 1449.97 156.743L1430.56 156.743Z" fill="#D72331"/>
<path d="M250.318 249.055C250.318 250.461 249.173 251.601 247.762 251.601C246.35 251.601 245.206 250.461 245.206 249.055L245.206 229.714C245.206 228.308 246.35 227.167 247.762 227.167C249.173 227.167 250.318 228.308 250.318 229.714L250.318 249.055Z" fill="#8001FF"/>
<path d="M238.056 241.931C236.644 241.931 235.5 240.791 235.5 239.384C235.5 237.978 236.644 236.838 238.056 236.838L257.467 236.838C258.879 236.838 260.023 237.978 260.023 239.384C260.023 240.791 258.879 241.931 257.467 241.931L238.056 241.931Z" fill="#8001FF"/>
<path d="M1667.82 864.798C1667.82 866.205 1666.67 867.345 1665.26 867.345C1663.85 867.345 1662.71 866.205 1662.71 864.798L1662.71 845.458C1662.71 844.051 1663.85 842.911 1665.26 842.911C1666.67 842.911 1667.82 844.051 1667.82 845.458L1667.82 864.798Z" fill="#222222"/>
<path d="M1655.56 857.675C1654.14 857.675 1653 856.534 1653 855.128C1653 853.721 1654.14 852.581 1655.56 852.581L1674.97 852.581C1676.38 852.581 1677.52 853.721 1677.52 855.128C1677.52 856.534 1676.38 857.675 1674.97 857.675L1655.56 857.675Z" fill="#222222"/>
<path d="M584.818 902.161C584.818 903.568 583.673 904.708 582.262 904.708C580.85 904.708 579.706 903.568 579.706 902.161L579.706 882.821C579.706 881.414 580.85 880.274 582.262 880.274C583.673 880.274 584.818 881.414 584.818 882.821L584.818 902.161Z" fill="#222222"/>
<path d="M572.556 895.038C571.144 895.038 570 893.897 570 892.491C570 891.084 571.144 889.944 572.556 889.944L591.967 889.944C593.379 889.944 594.523 891.084 594.523 892.491C594.523 893.897 593.379 895.038 591.967 895.038L572.556 895.038Z" fill="#222222"/>
</g>
</svg>
