<svg width="1920" height="1009" viewBox="0 0 1920 1009" fill="none" xmlns="http://www.w3.org/2000/svg">
<path d="M0 0H1920V1009H0V0Z" fill="#090909"/>
<path d="M1749.95 882.9L1750.86 883.309L1750.86 883.304L1749.95 882.9ZM1768.44 860.54L1767.9 859.699H1767.9L1768.44 860.54ZM1825.63 860.54L1826.17 859.699L1826.16 859.695L1825.63 860.54ZM1844.12 882.9L1843.21 883.304L1843.21 883.309L1844.12 882.9ZM1850.57 950.84L1849.57 950.84L1849.57 951.84L1850.57 951.84L1850.57 950.84ZM1894 950.84L1895 950.84L1895 949.84L1894 949.84L1894 950.84ZM1894 978.79L1894 979.79L1895 979.79L1895 978.79L1894 978.79ZM1743.5 978.79L1742.5 978.79L1742.5 979.79L1743.5 979.79L1743.5 978.79ZM1819.18 890.425L1818.41 891.058L1818.41 891.058L1819.18 890.425ZM1774.89 890.425L1775.66 891.058L1775.66 891.058L1774.89 890.425ZM1767.15 950.84L1766.15 950.84L1766.15 951.84L1767.15 951.84L1767.15 950.84ZM1826.92 950.84L1826.92 951.84L1827.92 951.84L1827.92 950.84L1826.92 950.84ZM1744.5 916.87C1744.5 903.935 1746.63 892.757 1750.86 883.309L1749.04 882.491C1744.67 892.25 1742.5 903.719 1742.5 916.87L1744.5 916.87ZM1750.86 883.304C1755.1 873.715 1761.14 866.423 1768.98 861.381L1767.9 859.699C1759.69 864.977 1753.4 872.592 1749.04 882.496L1750.86 883.304ZM1768.98 861.381C1776.82 856.34 1786.16 853.8 1797.03 853.8L1797.03 851.8C1785.84 851.8 1776.11 854.42 1767.9 859.699L1768.98 861.381ZM1797.03 853.8C1807.76 853.8 1817.11 856.339 1825.1 861.385L1826.16 859.695C1817.81 854.421 1808.09 851.8 1797.03 851.8L1797.03 853.8ZM1825.09 861.381C1832.93 866.423 1838.97 873.715 1843.21 883.304L1845.03 882.496C1840.67 872.592 1834.38 864.977 1826.17 859.699L1825.09 861.381ZM1843.21 883.309C1847.44 892.757 1849.57 903.935 1849.57 916.87L1851.57 916.87C1851.57 903.719 1849.4 892.25 1845.03 882.491L1843.21 883.309ZM1849.57 916.87L1849.57 950.84L1851.57 950.84L1851.57 916.87L1849.57 916.87ZM1850.57 951.84L1894 951.84L1894 949.84L1850.57 949.84L1850.57 951.84ZM1893 950.84L1893 978.79L1895 978.79L1895 950.84L1893 950.84ZM1894 977.79L1743.5 977.79L1743.5 979.79L1894 979.79L1894 977.79ZM1744.5 978.79L1744.5 916.87L1742.5 916.87L1742.5 978.79L1744.5 978.79ZM1827.92 918.16C1827.92 905.856 1825.32 896.347 1819.95 889.792L1818.41 891.058C1823.36 897.116 1825.92 906.098 1825.92 918.16L1827.92 918.16ZM1819.95 889.792C1814.57 883.21 1806.88 879.965 1797.03 879.965L1797.03 881.965C1806.4 881.965 1813.47 885.026 1818.41 891.058L1819.95 889.792ZM1797.03 879.965C1787.19 879.965 1779.5 883.21 1774.12 889.792L1775.66 891.058C1780.6 885.026 1787.67 881.965 1797.03 881.965L1797.03 879.965ZM1774.12 889.792C1768.75 896.347 1766.15 905.856 1766.15 918.16L1768.15 918.16C1768.15 906.098 1770.71 897.116 1775.66 891.058L1774.12 889.792ZM1766.15 918.16L1766.15 950.84L1768.15 950.84L1768.15 918.16L1766.15 918.16ZM1767.15 951.84L1826.92 951.84L1826.92 949.84L1767.15 949.84L1767.15 951.84ZM1827.92 950.84L1827.92 918.16L1825.92 918.16L1825.92 950.84L1827.92 950.84ZM1779.19 817.768L1778.19 817.768L1778.19 818.768L1779.19 818.768L1779.19 817.768ZM1779.19 790.893L1779.19 789.893L1778.19 789.893L1778.19 790.893L1779.19 790.893ZM1894 790.893L1895 790.893L1895 789.893L1894 789.893L1894 790.893ZM1894 817.768L1894 818.768L1895 818.768L1895 817.768L1894 817.768ZM1755.76 816.478L1756.48 817.17L1756.49 817.161L1756.49 817.153L1755.76 816.478ZM1732.75 816.478L1733.49 815.804L1733.48 815.796L1733.47 815.787L1732.75 816.478ZM1732.53 791.968L1733.27 792.643L1733.28 792.634L1733.29 792.625L1732.53 791.968ZM1755.54 791.968L1754.83 792.676H1754.83L1755.54 791.968ZM1780.19 817.768L1780.19 790.893L1778.19 790.893L1778.19 817.768L1780.19 817.768ZM1779.19 791.893L1894 791.893L1894 789.893L1779.19 789.893L1779.19 791.893ZM1893 790.893L1893 817.768L1895 817.768L1895 790.893L1893 790.893ZM1894 816.768L1779.19 816.768L1779.19 818.768L1894 818.768L1894 816.768ZM1759.27 804.223C1759.27 808.872 1757.84 812.709 1755.02 815.804L1756.49 817.153C1759.69 813.654 1761.27 809.321 1761.27 804.223L1759.27 804.223ZM1755.03 815.787C1752.07 818.885 1748.46 820.423 1744.14 820.423L1744.14 822.423C1749 822.423 1753.13 820.665 1756.48 817.17L1755.03 815.787ZM1744.14 820.423C1739.83 820.423 1736.3 818.887 1733.49 815.804L1732.01 817.153C1735.22 820.663 1739.29 822.423 1744.14 822.423L1744.14 820.423ZM1733.47 815.787C1730.51 812.69 1729.02 808.859 1729.02 804.223L1727.02 804.223C1727.02 809.335 1728.68 813.673 1732.03 817.17L1733.47 815.787ZM1729.02 804.223C1729.02 799.575 1730.45 795.738 1733.27 792.643L1731.8 791.294C1728.6 794.793 1727.02 799.125 1727.02 804.223L1729.02 804.223ZM1733.29 792.625C1735.96 789.551 1739.34 788.023 1743.5 788.023L1743.5 786.023C1738.77 786.023 1734.84 787.793 1731.78 791.312L1733.29 792.625ZM1743.5 788.023C1747.97 788.023 1751.73 789.569 1754.83 792.676L1756.25 791.261C1752.76 787.774 1748.49 786.023 1743.5 786.023L1743.5 788.023ZM1754.83 792.676C1757.77 795.617 1759.27 799.436 1759.27 804.223L1761.27 804.223C1761.27 798.978 1759.61 794.626 1756.25 791.261L1754.83 792.676ZM1887.98 724.23L1888.86 724.699L1887.98 724.23ZM1867.13 746.375L1867.63 747.237L1867.64 747.234L1867.13 746.375ZM1785.43 724.445L1784.54 724.914L1784.54 724.919L1785.43 724.445ZM1784.78 662.525L1785.66 663.002L1785.66 662.996L1784.78 662.525ZM1804.56 643.175L1805.42 642.671L1804.95 641.861L1804.11 642.281L1804.56 643.175ZM1816.6 663.815L1817.13 664.664L1817.95 664.151L1817.46 663.311L1816.6 663.815ZM1804.77 676.285L1805.65 676.773L1805.66 676.758L1805.66 676.742L1804.77 676.285ZM1810.58 717.35L1811.29 716.651L1811.29 716.643L1810.58 717.35ZM1862.83 717.565L1863.52 718.28L1863.53 718.272L1863.54 718.264L1862.83 717.565ZM1868.63 676.285L1869.51 675.817L1869.51 675.808L1868.63 676.285ZM1856.59 663.815L1855.73 663.311L1855.24 664.151L1856.06 664.664L1856.59 663.815ZM1868.63 643.175L1869.09 642.287L1868.24 641.85L1867.77 642.671L1868.63 643.175ZM1888.63 662.74L1889.5 662.263L1889.5 662.258L1888.63 662.74ZM1894.51 692.195C1894.51 703.947 1892.03 714.461 1887.1 723.762L1888.86 724.699C1893.96 715.079 1896.51 704.237 1896.51 692.195L1894.51 692.195ZM1887.1 723.762C1882.16 733.066 1875.34 740.31 1866.61 745.516L1867.64 747.234C1876.69 741.833 1883.76 734.314 1888.86 724.699L1887.1 723.762ZM1866.62 745.513C1857.75 750.719 1847.76 753.33 1836.59 753.33L1836.59 755.33C1848.08 755.33 1858.44 752.638 1867.63 747.237L1866.62 745.513ZM1836.59 753.33C1825.43 753.33 1815.51 750.719 1806.79 745.516L1805.77 747.234C1814.82 752.638 1825.11 755.33 1836.59 755.33L1836.59 753.33ZM1806.79 745.516C1798.06 740.308 1791.24 733.132 1786.31 723.971L1784.54 724.919C1789.64 734.391 1796.72 741.836 1805.77 747.234L1806.79 745.516ZM1786.31 723.977C1781.38 714.678 1778.9 704.092 1778.9 692.195L1776.9 692.195C1776.9 704.378 1779.44 715.292 1784.54 724.914L1786.31 723.977ZM1778.9 692.195C1778.9 681.009 1781.16 671.288 1785.66 663.002L1783.9 662.048C1779.22 670.675 1776.9 680.735 1776.9 692.195L1778.9 692.195ZM1785.66 662.996C1790.15 654.576 1796.6 648.275 1805.01 644.069L1804.11 642.281C1795.32 646.675 1788.58 653.274 1783.9 662.054L1785.66 662.996ZM1803.7 643.679L1815.74 664.319L1817.46 663.311L1805.42 642.671L1803.7 643.679ZM1816.07 662.966C1810.63 666.347 1806.56 670.633 1803.89 675.828L1805.66 676.742C1808.15 671.903 1811.96 667.876 1817.13 664.664L1816.07 662.966ZM1803.9 675.797C1801.09 680.828 1799.69 686.372 1799.69 692.41L1801.69 692.41C1801.69 686.695 1803.01 681.489 1805.65 676.773L1803.9 675.797ZM1799.69 692.41C1799.69 702.686 1803.08 711.261 1809.87 718.057L1811.29 716.643C1804.9 710.252 1801.69 702.2 1801.69 692.41L1799.69 692.41ZM1809.87 718.049C1816.54 724.87 1825.49 728.24 1836.59 728.24L1836.59 726.24C1825.92 726.24 1817.52 723.017 1811.29 716.651L1809.87 718.049ZM1836.59 728.24C1847.7 728.24 1856.71 724.945 1863.52 718.28L1862.13 716.85C1855.75 723.085 1847.28 726.24 1836.59 726.24L1836.59 728.24ZM1863.54 718.264C1870.19 711.464 1873.5 702.819 1873.5 692.41L1871.5 692.41C1871.5 702.355 1868.36 710.479 1862.11 716.866L1863.54 718.264ZM1873.5 692.41C1873.5 686.381 1872.18 680.844 1869.51 675.817L1867.75 676.753C1870.24 681.473 1871.5 686.685 1871.5 692.41L1873.5 692.41ZM1869.51 675.808C1866.7 670.625 1862.55 666.345 1857.12 662.966L1856.06 664.664C1861.23 667.878 1865.12 671.912 1867.75 676.762L1869.51 675.808ZM1857.45 664.319L1869.49 643.679L1867.77 642.671L1855.73 663.311L1857.45 664.319ZM1868.17 644.063C1876.59 648.414 1883.11 654.793 1887.75 663.222L1889.5 662.258C1884.68 653.487 1877.87 646.822 1869.09 642.287L1868.17 644.063ZM1887.75 663.217C1892.24 671.505 1894.51 681.154 1894.51 692.195L1896.51 692.195C1896.51 680.876 1894.18 670.888 1889.5 662.263L1887.75 663.217ZM1844.77 563.373L1844.14 562.595L1843.3 563.275L1844.04 564.06L1844.77 563.373ZM1863.69 583.368L1862.96 584.055L1863.25 584.368L1863.69 584.368L1863.69 583.368ZM1894 583.368L1895 583.368L1895 582.368L1894 582.368L1894 583.368ZM1894 610.243L1894 611.243L1895 611.243L1895 610.243L1894 610.243ZM1734.47 610.243L1733.47 610.243L1733.47 611.243L1734.47 611.243L1734.47 610.243ZM1734.47 583.368L1734.47 582.368L1733.47 582.368L1733.47 583.368L1734.47 583.368ZM1830.79 583.368L1830.79 584.368L1833.08 584.368L1831.52 582.688L1830.79 583.368ZM1779.19 527.683L1778.19 527.683L1778.19 528.075L1778.46 528.363L1779.19 527.683ZM1779.19 495.433L1779.9 494.724L1778.19 493.026L1778.19 495.433L1779.19 495.433ZM1827.35 543.378L1826.64 544.087L1827.27 544.712L1827.97 544.164L1827.35 543.378ZM1894 490.918L1895 490.918L1895 488.858L1893.38 490.132L1894 490.918ZM1894 523.598L1894.63 524.376L1895 524.076L1895 523.598L1894 523.598ZM1844.04 564.06L1862.96 584.055L1864.41 582.681L1845.49 562.686L1844.04 564.06ZM1863.69 584.368L1894 584.368L1894 582.368L1863.69 582.368L1863.69 584.368ZM1893 583.368L1893 610.243L1895 610.243L1895 583.368L1893 583.368ZM1894 609.243L1734.47 609.243L1734.47 611.243L1894 611.243L1894 609.243ZM1735.47 610.243L1735.47 583.368L1733.47 583.368L1733.47 610.243L1735.47 610.243ZM1734.47 584.368L1830.79 584.368L1830.79 582.368L1734.47 582.368L1734.47 584.368ZM1831.52 582.688L1779.92 527.003L1778.46 528.363L1830.06 584.048L1831.52 582.688ZM1780.19 527.683L1780.19 495.433L1778.19 495.433L1778.19 527.683L1780.19 527.683ZM1778.48 496.142L1826.64 544.087L1828.06 542.669L1779.9 494.724L1778.48 496.142ZM1827.97 544.164L1894.62 491.704L1893.38 490.132L1826.73 542.592L1827.97 544.164ZM1893 490.918L1893 523.598L1895 523.598L1895 490.918L1893 490.918ZM1893.37 522.82L1844.14 562.595L1845.39 564.151L1894.63 524.376L1893.37 522.82ZM1859.17 362.618L1858.77 361.701L1858.17 361.961L1858.17 362.618L1859.17 362.618ZM1859.17 437.868L1858.17 437.868L1858.17 438.529L1858.78 438.789L1859.17 437.868ZM1894 452.703L1895 452.703L1895 452.042L1894.39 451.783L1894 452.703ZM1894 481.513L1893.59 482.425L1895 483.06L1895 481.513L1894 481.513ZM1743.5 413.788L1742.5 413.788L1742.5 414.435L1743.09 414.7L1743.5 413.788ZM1743.5 386.268L1743.09 385.357L1742.5 385.623L1742.5 386.268L1743.5 386.268ZM1894 318.328L1895 318.328L1895 316.78L1893.59 317.417L1894 318.328ZM1894 347.568L1894.4 348.486L1895 348.226L1895 347.568L1894 347.568ZM1837.24 371.863L1838.24 371.863L1838.24 370.343L1836.84 370.945L1837.24 371.863ZM1771.45 400.243L1771.05 399.325L1768.92 400.247L1771.06 401.163L1771.45 400.243ZM1837.24 428.408L1836.85 429.328L1838.24 429.924L1838.24 428.408L1837.24 428.408ZM1858.17 362.618L1858.17 437.868L1860.17 437.868L1860.17 362.618L1858.17 362.618ZM1858.78 438.789L1893.61 453.623L1894.39 451.783L1859.56 436.948L1858.78 438.789ZM1893 452.703L1893 481.513L1895 481.513L1895 452.703L1893 452.703ZM1894.41 480.602L1743.91 412.877L1743.09 414.7L1893.59 482.425L1894.41 480.602ZM1744.5 413.788L1744.5 386.268L1742.5 386.268L1742.5 413.788L1744.5 413.788ZM1743.91 387.18L1894.41 319.24L1893.59 317.417L1743.09 385.357L1743.91 387.18ZM1893 318.328L1893 347.568L1895 347.568L1895 318.328L1893 318.328ZM1893.6 346.651L1858.77 361.701L1859.57 363.536L1894.4 348.486L1893.6 346.651ZM1836.84 370.945L1771.05 399.325L1771.85 401.162L1837.64 372.782L1836.84 370.945ZM1771.06 401.163L1836.85 429.328L1837.63 427.489L1771.84 399.324L1771.06 401.163ZM1838.24 428.408L1838.24 371.863L1836.24 371.863L1836.24 428.408L1838.24 428.408ZM1779.19 291.018L1778.19 291.018L1778.19 292.018L1779.19 292.018L1779.19 291.018ZM1779.19 264.143L1779.19 263.143L1778.19 263.143L1778.19 264.143L1779.19 264.143ZM1894 264.143L1895 264.143L1895 263.143L1894 263.143L1894 264.143ZM1894 291.018L1894 292.018L1895 292.018L1895 291.018L1894 291.018ZM1755.76 289.728L1756.48 290.42L1756.49 290.411L1756.49 290.403L1755.76 289.728ZM1732.75 289.728L1733.49 289.054L1733.48 289.046L1733.47 289.037L1732.75 289.728ZM1732.53 265.218L1733.27 265.893L1733.28 265.884L1733.29 265.875L1732.53 265.218ZM1755.54 265.218L1754.83 265.926H1754.83L1755.54 265.218ZM1780.19 291.018L1780.19 264.143L1778.19 264.143L1778.19 291.018L1780.19 291.018ZM1779.19 265.143L1894 265.143L1894 263.143L1779.19 263.143L1779.19 265.143ZM1893 264.143L1893 291.018L1895 291.018L1895 264.143L1893 264.143ZM1894 290.018L1779.19 290.018L1779.19 292.018L1894 292.018L1894 290.018ZM1759.27 277.473C1759.27 282.122 1757.84 285.959 1755.02 289.054L1756.49 290.403C1759.69 286.904 1761.27 282.571 1761.27 277.473L1759.27 277.473ZM1755.03 289.037C1752.07 292.135 1748.46 293.673 1744.15 293.673L1744.15 295.673C1749 295.673 1753.13 293.915 1756.48 290.42L1755.03 289.037ZM1744.15 293.673C1739.83 293.673 1736.3 292.137 1733.49 289.054L1732.01 290.403C1735.22 293.913 1739.29 295.673 1744.15 295.673L1744.15 293.673ZM1733.47 289.037C1730.51 285.94 1729.02 282.109 1729.02 277.473L1727.02 277.473C1727.02 282.585 1728.68 286.923 1732.03 290.42L1733.47 289.037ZM1729.02 277.473C1729.02 272.825 1730.45 268.988 1733.27 265.893L1731.8 264.544C1728.6 268.043 1727.02 272.375 1727.02 277.473L1729.02 277.473ZM1733.29 265.875C1735.96 262.801 1739.34 261.273 1743.5 261.273L1743.5 259.273C1738.77 259.273 1734.84 261.043 1731.78 264.562L1733.29 265.875ZM1743.5 261.273C1747.97 261.273 1751.73 262.819 1754.83 265.926L1756.25 264.511C1752.76 261.024 1748.49 259.273 1743.5 259.273L1743.5 261.273ZM1754.83 265.926C1757.77 268.867 1759.27 272.686 1759.27 277.473L1761.27 277.473C1761.27 272.228 1759.61 267.876 1756.25 264.511L1754.83 265.926ZM1790.59 38.81L1791.29 39.5171L1791.3 39.511L1790.59 38.81ZM1894 26.125L1895 26.125L1895 25.125L1894 25.125L1894 26.125ZM1894 53L1894 54L1895 54L1895 53L1894 53ZM1809.08 59.665L1809.73 60.4229L1809.74 60.4136L1809.08 59.665ZM1810.37 100.515L1811.04 99.7815L1811.04 99.7734L1810.37 100.515ZM1894 108.685L1895 108.685L1895 107.685L1894 107.685L1894 108.685ZM1894 135.56L1894 136.56L1895 136.56L1895 135.56L1894 135.56ZM1809.08 142.225L1809.73 142.983L1809.74 142.974L1809.08 142.225ZM1810.15 183.29L1809.47 184.023L1809.48 184.032L1810.15 183.29ZM1894 191.245L1895 191.245L1895 190.245L1894 190.245L1894 191.245ZM1894 218.12L1894 219.12L1895 219.12L1895 218.12L1894 218.12ZM1779.19 218.12L1778.19 218.12L1778.19 219.12L1779.19 219.12L1779.19 218.12ZM1779.19 192.535L1779.19 191.535L1778.19 191.535L1778.19 192.535L1779.19 192.535ZM1793.81 192.535L1793.81 193.535L1796.57 193.535L1794.45 191.767L1793.81 192.535ZM1781.99 176.41L1782.91 176.021L1781.99 176.41ZM1782.85 132.12L1783.74 132.567L1783.75 132.556L1783.75 132.544L1782.85 132.12ZM1797.04 116.21L1797.56 117.062L1798.78 116.311L1797.65 115.424L1797.04 116.21ZM1783.06 97.935L1783.97 97.5305L1783.97 97.5232L1783.97 97.5159L1783.06 97.935ZM1778.9 73.21C1778.9 58.939 1783.06 47.7479 1791.29 39.5171L1789.88 38.1029C1781.2 46.7854 1776.9 58.5277 1776.9 73.21L1778.9 73.21ZM1791.3 39.511C1799.36 31.3132 1811.6 27.125 1828.21 27.125L1828.21 25.125C1811.28 25.125 1798.44 29.3934 1789.87 38.1089L1791.3 39.511ZM1828.21 27.125L1894 27.125L1894 25.125L1828.21 25.125L1828.21 27.125ZM1893 26.125L1893 53L1895 53L1895 26.125L1893 26.125ZM1894 52L1831.65 52L1831.65 54L1894 54L1894 52ZM1831.65 52C1821.49 52 1813.68 54.247 1808.41 58.9164L1809.74 60.4136C1814.5 56.1964 1821.74 54 1831.65 54L1831.65 52ZM1808.42 58.9072C1802.99 63.582 1800.34 70.2657 1800.34 78.8L1802.34 78.8C1802.34 70.7076 1804.84 64.6347 1809.73 60.4227L1808.42 58.9072ZM1800.34 78.8C1800.34 88.0772 1803.44 95.5978 1809.69 101.257L1811.04 99.7734C1805.25 94.5388 1802.34 87.5828 1802.34 78.8L1800.34 78.8ZM1809.69 101.248C1815.81 106.922 1824.54 109.685 1835.74 109.685L1835.74 107.685C1824.85 107.685 1816.68 105.001 1811.04 99.7816L1809.69 101.248ZM1835.74 109.685L1894 109.685L1894 107.685L1835.74 107.685L1835.74 109.685ZM1893 108.685L1893 135.56L1895 135.56L1895 108.685L1893 108.685ZM1894 134.56L1831.65 134.56L1831.65 136.56L1894 136.56L1894 134.56ZM1831.65 134.56C1821.49 134.56 1813.68 136.807 1808.41 141.476L1809.74 142.974C1814.5 138.756 1821.74 136.56 1831.65 136.56L1831.65 134.56ZM1808.42 141.467C1802.99 146.142 1800.34 152.826 1800.34 161.36L1802.34 161.36C1802.34 153.268 1804.84 147.195 1809.73 142.983L1808.42 141.467ZM1800.34 161.36C1800.34 170.767 1803.36 178.359 1809.47 184.023L1810.83 182.557C1805.19 177.327 1802.34 170.299 1802.34 161.36L1800.34 161.36ZM1809.48 184.032C1815.6 189.559 1824.41 192.245 1835.74 192.245L1835.74 190.245C1824.7 190.245 1816.45 187.628 1810.82 182.548L1809.48 184.032ZM1835.74 192.245L1894 192.245L1894 190.245L1835.74 190.245L1835.74 192.245ZM1893 191.245L1893 218.12L1895 218.12L1895 191.245L1893 191.245ZM1894 217.12L1779.19 217.12L1779.19 219.12L1894 219.12L1894 217.12ZM1780.19 218.12L1780.19 192.535L1778.19 192.535L1778.19 218.12L1780.19 218.12ZM1779.19 193.535L1793.81 193.535L1793.81 191.535L1779.19 191.535L1779.19 193.535ZM1794.45 191.767C1789.42 187.573 1785.57 182.33 1782.91 176.021L1781.06 176.799C1783.85 183.39 1787.88 188.897 1793.17 193.303L1794.45 191.767ZM1782.91 176.021C1780.24 169.709 1778.9 162.677 1778.9 154.91L1776.9 154.91C1776.9 162.91 1778.28 170.211 1781.06 176.799L1782.91 176.021ZM1778.9 154.91C1778.9 146.439 1780.52 139 1783.74 132.567L1781.95 131.673C1778.57 138.426 1776.9 146.181 1776.9 154.91L1778.9 154.91ZM1783.75 132.544C1786.82 125.983 1791.42 120.829 1797.56 117.062L1796.51 115.358C1790.04 119.331 1785.18 124.783 1781.94 131.696L1783.75 132.544ZM1797.65 115.424C1791.77 110.801 1787.21 104.844 1783.97 97.5305L1782.15 98.3395C1785.5 105.932 1790.26 112.159 1796.42 116.996L1797.65 115.424ZM1783.97 97.5159C1780.59 90.2067 1778.9 82.1099 1778.9 73.21L1776.9 73.21C1776.9 82.3701 1778.65 90.7567 1782.15 98.3541L1783.97 97.5159Z" fill="url(#paint0_linear_60_4)" fill-opacity="0.35"/>
<path d="M289.318 497.743C289.318 499.053 288.173 500.115 286.762 500.115C285.35 500.115 284.206 499.053 284.206 497.743L284.206 479.733C284.206 478.423 285.35 477.361 286.762 477.361C288.173 477.361 289.318 478.423 289.318 479.733L289.318 497.743Z" fill="#131313"/>
<path d="M277.056 491.109C275.644 491.109 274.5 490.048 274.5 488.738C274.5 487.428 275.644 486.366 277.056 486.366L296.467 486.366C297.879 486.366 299.023 487.428 299.023 488.738C299.023 490.048 297.879 491.109 296.467 491.109L277.056 491.109Z" fill="#131313"/>
<path d="M584.818 314.035C584.818 315.345 583.673 316.407 582.262 316.407C580.85 316.407 579.706 315.345 579.706 314.035L579.706 296.025C579.706 294.716 580.85 293.654 582.262 293.654C583.673 293.654 584.818 294.716 584.818 296.025L584.818 314.035Z" fill="#131313"/>
<path d="M572.556 307.402C571.144 307.402 570 306.34 570 305.03C570 303.721 571.144 302.659 572.556 302.659L591.967 302.659C593.379 302.659 594.523 303.721 594.523 305.03C594.523 306.34 593.379 307.402 591.967 307.402L572.556 307.402Z" fill="#131313"/>
<path d="M839.818 528.361C839.818 529.671 838.673 530.732 837.262 530.732C835.85 530.732 834.706 529.671 834.706 528.361L834.706 510.351C834.706 509.041 835.85 507.979 837.262 507.979C838.673 507.979 839.818 509.041 839.818 510.351L839.818 528.361Z" fill="#131313"/>
<path d="M827.556 521.727C826.144 521.727 825 520.666 825 519.356C825 518.046 826.144 516.984 827.556 516.984L846.967 516.984C848.379 516.984 849.523 518.046 849.523 519.356C849.523 520.666 848.379 521.727 846.967 521.727L827.556 521.727Z" fill="#131313"/>
<path d="M484.318 702.326C484.318 703.636 483.173 704.698 481.762 704.698C480.35 704.698 479.206 703.636 479.206 702.326L479.206 684.316C479.206 683.007 480.35 681.945 481.762 681.945C483.173 681.945 484.318 683.007 484.318 684.316L484.318 702.326Z" fill="#131313"/>
<path d="M472.056 695.693C470.644 695.693 469.5 694.631 469.5 693.321C469.5 692.012 470.644 690.95 472.056 690.95L491.467 690.95C492.879 690.95 494.023 692.012 494.023 693.321C494.023 694.631 492.879 695.693 491.467 695.693L472.056 695.693Z" fill="#131313"/>
<path d="M439.318 799.747C439.318 801.057 438.173 802.119 436.762 802.119C435.35 802.119 434.206 801.057 434.206 799.747L434.206 781.737C434.206 780.427 435.35 779.365 436.762 779.365C438.173 779.365 439.318 780.427 439.318 781.737L439.318 799.747Z" fill="#131313"/>
<path d="M427.056 793.114C425.644 793.114 424.5 792.052 424.5 790.742C424.5 789.432 425.644 788.371 427.056 788.371L446.467 788.371C447.879 788.371 449.023 789.432 449.023 790.742C449.023 792.052 447.879 793.114 446.467 793.114L427.056 793.114Z" fill="#131313"/>
<path d="M970.318 852.633C970.318 853.943 969.173 855.004 967.762 855.004C966.35 855.004 965.206 853.943 965.206 852.633L965.206 834.623C965.206 833.313 966.35 832.251 967.762 832.251C969.173 832.251 970.318 833.313 970.318 834.623L970.318 852.633Z" fill="#131313"/>
<path d="M958.056 845.999C956.644 845.999 955.5 844.937 955.5 843.628C955.5 842.318 956.644 841.256 958.056 841.256L977.467 841.256C978.879 841.256 980.023 842.318 980.023 843.628C980.023 844.937 978.879 845.999 977.467 845.999L958.056 845.999Z" fill="#131313"/>
<path d="M991.318 314.035C991.318 315.345 990.173 316.407 988.762 316.407C987.35 316.407 986.206 315.345 986.206 314.035L986.206 296.025C986.206 294.716 987.35 293.654 988.762 293.654C990.173 293.654 991.318 294.716 991.318 296.025L991.318 314.035Z" fill="#131313"/>
<path d="M979.056 307.402C977.644 307.402 976.5 306.34 976.5 305.03C976.5 303.721 977.644 302.659 979.056 302.659L998.467 302.659C999.879 302.659 1001.02 303.721 1001.02 305.03C1001.02 306.34 999.879 307.402 998.467 307.402L979.056 307.402Z" fill="#131313"/>
<path d="M1310.82 337.695C1310.82 339.005 1309.67 340.066 1308.26 340.066C1306.85 340.066 1305.71 339.005 1305.71 337.695L1305.71 319.685C1305.71 318.375 1306.85 317.313 1308.26 317.313C1309.67 317.313 1310.82 318.375 1310.82 319.685L1310.82 337.695Z" fill="#131313"/>
<path d="M1298.56 331.061C1297.14 331.061 1296 329.999 1296 328.69C1296 327.38 1297.14 326.318 1298.56 326.318L1317.97 326.318C1319.38 326.318 1320.52 327.38 1320.52 328.69C1320.52 329.999 1319.38 331.061 1317.97 331.061L1298.56 331.061Z" fill="#131313"/>
<path d="M1552.32 849.849C1552.32 851.159 1551.17 852.221 1549.76 852.221C1548.35 852.221 1547.21 851.159 1547.21 849.849L1547.21 831.839C1547.21 830.529 1548.35 829.468 1549.76 829.468C1551.17 829.468 1552.32 830.529 1552.32 831.839L1552.32 849.849Z" fill="#131313"/>
<path d="M1540.06 843.216C1538.64 843.216 1537.5 842.154 1537.5 840.844C1537.5 839.534 1538.64 838.473 1540.06 838.473L1559.47 838.473C1560.88 838.473 1562.02 839.534 1562.02 840.844C1562.02 842.154 1560.88 843.216 1559.47 843.216L1540.06 843.216Z" fill="#131313"/>
<path d="M1319.82 675.884C1319.82 677.194 1318.67 678.255 1317.26 678.255C1315.85 678.255 1314.71 677.194 1314.71 675.884L1314.71 657.874C1314.71 656.564 1315.85 655.502 1317.26 655.502C1318.67 655.502 1319.82 656.564 1319.82 657.874L1319.82 675.884Z" fill="#131313"/>
<path d="M1307.56 669.25C1306.14 669.25 1305 668.188 1305 666.879C1305 665.569 1306.14 664.507 1307.56 664.507L1326.97 664.507C1328.38 664.507 1329.52 665.569 1329.52 666.879C1329.52 668.188 1328.38 669.25 1326.97 669.25L1307.56 669.25Z" fill="#131313"/>
<ellipse cx="462" cy="324.272" rx="3" ry="2.78345" fill="#131313"/>
<ellipse cx="556.5" cy="338.189" rx="3" ry="2.78345" fill="#131313"/>
<ellipse cx="303" cy="523.288" rx="3" ry="2.78345" fill="#131313"/>
<ellipse cx="813" cy="533.03" rx="3" ry="2.78345" fill="#131313"/>
<ellipse cx="466.5" cy="673.595" rx="3" ry="2.78345" fill="#131313"/>
<ellipse cx="484.5" cy="723.697" rx="3" ry="2.78345" fill="#131313"/>
<ellipse cx="982.5" cy="860.085" rx="3" ry="2.78345" fill="#131313"/>
<ellipse cx="1320" cy="698.646" rx="3" ry="2.78345" fill="#131313"/>
<ellipse cx="996" cy="275.561" rx="3" ry="2.78345" fill="#131313"/>
<ellipse cx="1351.5" cy="343.756" rx="3" ry="2.78345" fill="#131313"/>
<ellipse cx="1354.5" cy="491.279" rx="3" ry="2.78345" fill="#131313"/>
<ellipse cx="1590" cy="857.302" rx="3" ry="2.78345" fill="#131313"/>
<ellipse cx="555.75" cy="248.423" rx="2.25" ry="2.08759" fill="#131313"/>
<ellipse cx="257.25" cy="498.933" rx="2.25" ry="2.08759" fill="#131313"/>
<ellipse cx="276.75" cy="464.14" rx="2.25" ry="2.08759" fill="#131313"/>
<ellipse cx="555.75" cy="248.423" rx="2.25" ry="2.08759" fill="#131313"/>
<ellipse cx="446.25" cy="766.144" rx="2.25" ry="2.08759" fill="#131313"/>
<ellipse cx="414.75" cy="812.071" rx="2.25" ry="2.08759" fill="#131313"/>
<ellipse cx="398.25" cy="700.733" rx="2.25" ry="2.08759" fill="#131313"/>
<ellipse cx="762.75" cy="721.609" rx="2.25" ry="2.08759" fill="#131313"/>
<ellipse cx="525.75" cy="798.154" rx="2.25" ry="2.08759" fill="#131313"/>
<ellipse cx="299.25" cy="322.184" rx="2.25" ry="2.08759" fill="#131313"/>
<ellipse cx="948.75" cy="284.608" rx="2.25" ry="2.08759" fill="#131313"/>
<ellipse cx="882.75" cy="206.671" rx="2.25" ry="2.08759" fill="#131313"/>
<ellipse cx="1326.75" cy="798.154" rx="2.25" ry="2.08759" fill="#131313"/>
<ellipse cx="1511.25" cy="319.401" rx="2.25" ry="2.08759" fill="#131313"/>
<ellipse cx="1566" cy="822.509" rx="4.5" ry="4.17517" fill="#131313"/>
<ellipse cx="997.5" cy="836.426" rx="4.5" ry="4.17517" fill="#131313"/>
<ellipse cx="531" cy="606.792" rx="4.5" ry="4.17517" fill="#131313"/>
<ellipse cx="1035" cy="345.148" rx="4.5" ry="4.17517" fill="#131313"/>
<ellipse cx="1252.5" cy="311.746" rx="4.5" ry="4.17517" fill="#131313"/>
<ellipse cx="1333.5" cy="303.396" rx="4.5" ry="4.17517" fill="#131313"/>
<ellipse cx="1282.5" cy="800.241" rx="4.5" ry="4.17517" fill="#131313"/>
<defs>
<linearGradient id="paint0_linear_60_4" x1="1815.47" y1="999" x2="1815.47" y2="5" gradientUnits="userSpaceOnUse">
<stop stop-color="#BD00FF"/>
<stop offset="1" stop-color="#FF2E00" stop-opacity="0.68"/>
</linearGradient>
</defs>
</svg>
