<svg width="1920" height="915" viewBox="0 0 1920 915" fill="none" xmlns="http://www.w3.org/2000/svg">
<mask id="mask0_175_7" style="mask-type:alpha" maskUnits="userSpaceOnUse" x="0" y="0" width="1920" height="915">
<rect width="1920" height="915" fill="#C4C4C4"/>
</mask>
<g mask="url(#mask0_175_7)">
<path d="M0 -9H1920V915H0V-9Z" fill="url(#paint0_linear_175_7)"/>
<path d="M142.05 96.1L141.137 95.6913L141.135 95.6964L142.05 96.1ZM123.56 118.46L124.101 119.301L124.101 119.301L123.56 118.46ZM66.37 118.46L65.8292 119.301L65.836 119.306L66.37 118.46ZM47.88 96.1L48.7949 95.6964L48.7927 95.6913L47.88 96.1ZM41.43 28.16L42.43 28.16L42.43 27.16L41.43 27.16L41.43 28.16ZM-2 28.16L-3 28.16L-3 29.16L-2 29.16L-2 28.16ZM-2 0.210003L-2 -0.789997L-3 -0.789997L-3 0.210003L-2 0.210003ZM148.5 0.210001L149.5 0.210001L149.5 -0.789999L148.5 -0.789999L148.5 0.210001ZM72.82 88.575L73.594 87.9418L73.594 87.9418L72.82 88.575ZM117.11 88.575L116.336 87.9418L116.336 87.9418L117.11 88.575ZM124.85 28.16L125.85 28.16L125.85 27.16L124.85 27.16L124.85 28.16ZM65.08 28.16L65.08 27.16L64.08 27.16L64.08 28.16L65.08 28.16ZM147.5 62.13C147.5 75.0653 145.368 86.2435 141.137 95.6913L142.963 96.5087C147.332 86.7499 149.5 75.2814 149.5 62.13L147.5 62.13ZM141.135 95.6964C136.905 105.285 130.862 112.577 123.019 117.619L124.101 119.301C132.311 114.023 138.595 106.408 142.965 96.5036L141.135 95.6964ZM123.019 117.619C115.178 122.66 105.841 125.2 94.965 125.2L94.965 127.2C106.163 127.2 115.889 124.58 124.101 119.301L123.019 117.619ZM94.965 125.2C84.2359 125.2 74.8945 122.661 66.904 117.615L65.836 119.306C74.1855 124.579 83.9074 127.2 94.965 127.2L94.965 125.2ZM66.9108 117.619C59.0678 112.577 53.0253 105.285 48.7949 95.6964L46.9651 96.5036C51.3347 106.408 57.6188 114.023 65.8292 119.301L66.9108 117.619ZM48.7927 95.6913C44.5623 86.2435 42.43 75.0653 42.43 62.13L40.43 62.13C40.43 75.2814 42.5977 86.7499 46.9673 96.5087L48.7927 95.6913ZM42.43 62.13L42.43 28.16L40.43 28.16L40.43 62.13L42.43 62.13ZM41.43 27.16L-2 27.16L-2 29.16L41.43 29.16L41.43 27.16ZM-0.999999 28.16L-1 0.210003L-3 0.210003L-3 28.16L-0.999999 28.16ZM-2 1.21L148.5 1.21L148.5 -0.789999L-2 -0.789997L-2 1.21ZM147.5 0.210001L147.5 62.13L149.5 62.13L149.5 0.210001L147.5 0.210001ZM64.08 60.84C64.08 73.1442 66.6828 82.6532 72.046 89.2082L73.594 87.9418C68.6372 81.8835 66.08 72.9024 66.08 60.84L64.08 60.84ZM72.046 89.2082C77.4307 95.7895 85.1213 99.035 94.965 99.035L94.965 97.035C85.602 97.035 78.5293 93.9738 73.594 87.9418L72.046 89.2082ZM94.965 99.035C104.809 99.035 112.499 95.7895 117.884 89.2082L116.336 87.9418C111.401 93.9738 104.328 97.035 94.965 97.035L94.965 99.035ZM117.884 89.2082C123.247 82.6532 125.85 73.1442 125.85 60.84L123.85 60.84C123.85 72.9024 121.293 81.8835 116.336 87.9418L117.884 89.2082ZM125.85 60.84L125.85 28.16L123.85 28.16L123.85 60.84L125.85 60.84ZM124.85 27.16L65.08 27.16L65.08 29.16L124.85 29.16L124.85 27.16ZM64.08 28.16L64.08 60.84L66.08 60.84L66.08 28.16L64.08 28.16ZM112.81 161.232L113.81 161.232L113.81 160.232L112.81 160.232L112.81 161.232ZM112.81 188.107L112.81 189.107L113.81 189.107L113.81 188.107L112.81 188.107ZM-2 188.107L-3 188.107L-3 189.107L-2 189.107L-2 188.107ZM-2 161.232L-2 160.232L-3 160.232L-3 161.232L-2 161.232ZM136.245 162.522L135.522 161.83L135.514 161.839L135.507 161.847L136.245 162.522ZM159.25 162.522L158.512 163.196L158.519 163.204L158.527 163.213L159.25 162.522ZM159.465 187.032L158.727 186.357L158.718 186.366L158.71 186.375L159.465 187.032ZM136.46 187.032L137.167 186.324L137.167 186.324L136.46 187.032ZM111.81 161.232L111.81 188.107L113.81 188.107L113.81 161.232L111.81 161.232ZM112.81 187.107L-2 187.107L-2 189.107L112.81 189.107L112.81 187.107ZM-0.999998 188.107L-0.999998 161.232L-3 161.232L-3 188.107L-0.999998 188.107ZM-2 162.232L112.81 162.232L112.81 160.232L-2 160.232L-2 162.232ZM132.73 174.777C132.73 170.128 134.158 166.291 136.983 163.196L135.507 161.847C132.312 165.346 130.73 169.679 130.73 174.777L132.73 174.777ZM136.968 163.213C139.931 160.115 143.54 158.577 147.855 158.577L147.855 156.577C142.997 156.577 138.866 158.335 135.522 161.83L136.968 163.213ZM147.855 158.577C152.169 158.577 155.697 160.113 158.512 163.196L159.989 161.847C156.783 158.337 152.714 156.577 147.855 156.577L147.855 158.577ZM158.527 163.213C161.49 166.31 162.98 170.141 162.98 174.777L164.98 174.777C164.98 169.665 163.317 165.327 159.973 161.83L158.527 163.213ZM162.98 174.777C162.98 179.425 161.552 183.262 158.727 186.357L160.203 187.706C163.398 184.207 164.98 179.875 164.98 174.777L162.98 174.777ZM158.71 186.375C156.037 189.449 152.66 190.977 148.5 190.977L148.5 192.977C153.227 192.977 157.159 191.207 160.22 187.688L158.71 186.375ZM148.5 190.977C144.031 190.977 140.273 189.431 137.167 186.324L135.753 187.739C139.24 191.226 143.509 192.977 148.5 192.977L148.5 190.977ZM137.167 186.324C134.225 183.383 132.73 179.564 132.73 174.777L130.73 174.777C130.73 180.022 132.388 184.374 135.753 187.739L137.167 186.324ZM4.02 254.77L3.13654 254.301L3.13654 254.301L4.02 254.77ZM24.875 232.625L24.3686 231.763L24.3625 231.766L24.875 232.625ZM106.575 254.555L107.458 254.086L107.455 254.081L106.575 254.555ZM107.22 316.475L106.341 315.998L106.338 316.004L107.22 316.475ZM87.44 335.825L86.5762 336.329L87.0486 337.139L87.8872 336.719L87.44 335.825ZM75.4 315.185L74.8721 314.336L74.0463 314.849L74.5362 315.689L75.4 315.185ZM87.225 302.715L86.3521 302.227L86.3436 302.242L86.3357 302.258L87.225 302.715ZM81.42 261.65L80.7051 262.349L80.7129 262.357L81.42 261.65ZM29.175 261.435L28.4757 260.72L28.4679 260.728L28.4602 260.736L29.175 261.435ZM23.37 302.715L22.4862 303.183L22.4912 303.192L23.37 302.715ZM35.41 315.185L36.2738 315.689L36.7637 314.849L35.9379 314.336L35.41 315.185ZM23.37 335.825L22.911 336.713L23.7551 337.15L24.2338 336.329L23.37 335.825ZM3.375 316.26L2.49596 316.737L2.49879 316.742L3.375 316.26ZM-2.505 286.805C-2.505 275.053 -0.0284765 264.539 4.90347 255.239L3.13654 254.301C-1.96485 263.921 -4.505 274.763 -4.505 286.805L-2.505 286.805ZM4.90347 255.239C9.83758 245.934 16.6634 238.69 25.3875 233.484L24.3625 231.766C15.3132 237.167 8.23576 244.686 3.13654 254.301L4.90347 255.239ZM25.3814 233.487C34.2455 228.281 44.2448 225.67 55.405 225.67L55.405 223.67C43.9186 223.67 33.5645 226.362 24.3686 231.763L25.3814 233.487ZM55.405 225.67C66.5654 225.67 76.4902 228.281 85.2076 233.484L86.2325 231.766C77.1765 226.362 66.8912 223.67 55.405 223.67L55.405 225.67ZM85.2076 233.484C93.9354 238.692 100.762 245.868 105.695 255.029L107.455 254.081C102.355 244.609 95.2779 237.164 86.2325 231.766L85.2076 233.484ZM105.692 255.024C110.623 264.322 113.1 274.908 113.1 286.805L115.1 286.805C115.1 274.622 112.561 263.708 107.458 254.086L105.692 255.024ZM113.1 286.805C113.1 297.991 110.835 307.712 106.341 315.998L108.099 316.952C112.778 308.325 115.1 298.265 115.1 286.805L113.1 286.805ZM106.338 316.004C101.847 324.424 95.4046 330.725 86.9928 334.931L87.8872 336.719C96.6754 332.325 103.42 325.726 108.102 316.946L106.338 316.004ZM88.3038 335.321L76.2638 314.681L74.5362 315.689L86.5762 336.329L88.3038 335.321ZM75.9279 316.034C81.3681 312.653 85.4429 308.367 88.1143 303.172L86.3357 302.258C83.8471 307.097 80.0386 311.124 74.8721 314.336L75.9279 316.034ZM88.098 303.203C90.909 298.172 92.31 292.628 92.31 286.59L90.31 286.59C90.31 292.305 88.9876 297.511 86.3521 302.227L88.098 303.203ZM92.31 286.59C92.31 276.314 88.9232 267.739 82.1271 260.943L80.7129 262.357C87.1035 268.748 90.31 276.8 90.31 286.59L92.31 286.59ZM82.1348 260.951C75.4629 254.13 66.5148 250.76 55.405 250.76L55.405 252.76C66.0819 252.76 74.4771 255.983 80.7052 262.349L82.1348 260.951ZM55.405 250.76C44.301 250.76 35.2893 254.055 28.4757 260.72L29.8743 262.15C36.2474 255.915 44.7224 252.76 55.405 252.76L55.405 250.76ZM28.4602 260.736C21.8077 267.536 18.5 276.181 18.5 286.59L20.5 286.59C20.5 276.645 23.6423 268.521 29.8898 262.134L28.4602 260.736ZM18.5 286.59C18.5 292.619 19.8249 298.156 22.4862 303.183L24.2538 302.247C21.7551 297.527 20.5 292.315 20.5 286.59L18.5 286.59ZM22.4912 303.192C25.3048 308.375 29.4457 312.655 34.8821 316.034L35.9379 314.336C30.7677 311.122 26.8818 307.088 24.2489 302.238L22.4912 303.192ZM34.5462 314.681L22.5062 335.321L24.2338 336.329L36.2738 315.689L34.5462 314.681ZM23.829 334.937C15.4079 330.586 8.887 324.207 4.25122 315.778L2.49879 316.742C7.32301 325.513 14.1321 332.178 22.911 336.713L23.829 334.937ZM4.25404 315.783C-0.241237 307.495 -2.505 297.846 -2.505 286.805L-4.505 286.805C-4.505 298.124 -2.18209 308.112 2.49597 316.737L4.25404 315.783ZM47.235 415.627L47.8634 416.405L48.7047 415.725L47.9614 414.94L47.235 415.627ZM28.315 395.632L29.0414 394.945L28.7455 394.632L28.315 394.632L28.315 395.632ZM-2 395.632L-3 395.632L-3 396.632L-2 396.632L-2 395.632ZM-2 368.757L-2 367.757L-3 367.757L-3 368.757L-2 368.757ZM157.53 368.757L158.53 368.757L158.53 367.757L157.53 367.757L157.53 368.757ZM157.53 395.632L157.53 396.632L158.53 396.632L158.53 395.632L157.53 395.632ZM61.21 395.632L61.21 394.632L58.92 394.632L60.4765 396.312L61.21 395.632ZM112.81 451.317L113.81 451.317L113.81 450.925L113.544 450.637L112.81 451.317ZM112.81 483.567L112.104 484.276L113.81 485.974L113.81 483.567L112.81 483.567ZM64.65 435.622L65.3555 434.913L64.7277 434.288L64.0315 434.836L64.65 435.622ZM-1.99999 488.082L-2.99999 488.082L-2.99999 490.142L-1.3815 488.868L-1.99999 488.082ZM-1.99999 455.402L-2.62841 454.624L-2.99999 454.924L-2.99999 455.402L-1.99999 455.402ZM47.9614 414.94L29.0414 394.945L27.5886 396.319L46.5086 416.314L47.9614 414.94ZM28.315 394.632L-2 394.632L-2 396.632L28.315 396.632L28.315 394.632ZM-0.999995 395.632L-0.999995 368.757L-3 368.757L-3 395.632L-0.999995 395.632ZM-2 369.757L157.53 369.757L157.53 367.757L-2 367.757L-2 369.757ZM156.53 368.757L156.53 395.632L158.53 395.632L158.53 368.757L156.53 368.757ZM157.53 394.632L61.21 394.632L61.21 396.632L157.53 396.632L157.53 394.632ZM60.4765 396.312L112.077 451.997L113.544 450.637L61.9435 394.952L60.4765 396.312ZM111.81 451.317L111.81 483.567L113.81 483.567L113.81 451.317L111.81 451.317ZM113.516 482.858L65.3555 434.913L63.9445 436.331L112.104 484.276L113.516 482.858ZM64.0315 434.836L-2.61849 487.296L-1.3815 488.868L65.2685 436.408L64.0315 434.836ZM-0.999994 488.082L-0.999994 455.402L-2.99999 455.402L-2.99999 488.082L-0.999994 488.082ZM-1.37158 456.18L47.8634 416.405L46.6066 414.849L-2.62841 454.624L-1.37158 456.18ZM32.83 616.382L33.2267 617.3L33.83 617.039L33.83 616.382L32.83 616.382ZM32.83 541.132L33.83 541.132L33.83 540.471L33.2219 540.212L32.83 541.132ZM-1.99999 526.297L-2.99999 526.297L-2.99999 526.958L-2.39186 527.217L-1.99999 526.297ZM-1.99999 497.487L-1.58963 496.575L-2.99999 495.94L-2.99999 497.487L-1.99999 497.487ZM148.5 565.212L149.5 565.212L149.5 564.565L148.91 564.3L148.5 565.212ZM148.5 592.732L148.911 593.643L149.5 593.377L149.5 592.732L148.5 592.732ZM-1.99999 660.672L-2.99999 660.672L-2.99999 662.22L-1.58854 661.583L-1.99999 660.672ZM-1.99999 631.432L-2.39665 630.514L-2.99999 630.774L-2.99999 631.432L-1.99999 631.432ZM54.76 607.137L53.76 607.137L53.76 608.657L55.1561 608.055L54.76 607.137ZM120.55 578.757L120.946 579.675L123.083 578.753L120.944 577.837L120.55 578.757ZM54.76 550.592L55.1536 549.672L53.76 549.076L53.76 550.592L54.76 550.592ZM33.83 616.382L33.83 541.132L31.83 541.132L31.83 616.382L33.83 616.382ZM33.2219 540.212L-1.60813 525.377L-2.39186 527.217L32.4381 542.052L33.2219 540.212ZM-0.999993 526.297L-0.999994 497.487L-2.99999 497.487L-2.99999 526.297L-0.999993 526.297ZM-2.41036 498.398L148.09 566.123L148.91 564.3L-1.58963 496.575L-2.41036 498.398ZM147.5 565.212L147.5 592.732L149.5 592.732L149.5 565.212L147.5 565.212ZM148.089 591.82L-2.41144 659.76L-1.58854 661.583L148.911 593.643L148.089 591.82ZM-0.999992 660.672L-0.999992 631.432L-2.99999 631.432L-2.99999 660.672L-0.999992 660.672ZM-1.60334 632.35L33.2267 617.3L32.4334 615.464L-2.39665 630.514L-1.60334 632.35ZM55.1561 608.055L120.946 579.675L120.154 577.838L54.3639 606.218L55.1561 608.055ZM120.944 577.837L55.1536 549.672L54.3664 551.511L120.156 579.676L120.944 577.837ZM53.76 550.592L53.76 607.137L55.76 607.137L55.76 550.592L53.76 550.592ZM112.81 687.982L113.81 687.982L113.81 686.982L112.81 686.982L112.81 687.982ZM112.81 714.857L112.81 715.857L113.81 715.857L113.81 714.857L112.81 714.857ZM-1.99999 714.857L-2.99999 714.857L-2.99999 715.857L-1.99999 715.857L-1.99999 714.857ZM-1.99999 687.982L-1.99999 686.982L-2.99999 686.982L-2.99999 687.982L-1.99999 687.982ZM136.245 689.272L135.522 688.58L135.514 688.589L135.507 688.597L136.245 689.272ZM159.25 689.272L158.512 689.946L158.519 689.954L158.527 689.963L159.25 689.272ZM159.465 713.782L158.727 713.107L158.718 713.116L158.71 713.125L159.465 713.782ZM136.46 713.782L137.167 713.074L137.167 713.074L136.46 713.782ZM111.81 687.982L111.81 714.857L113.81 714.857L113.81 687.982L111.81 687.982ZM112.81 713.857L-1.99999 713.857L-1.99999 715.857L112.81 715.857L112.81 713.857ZM-0.999991 714.857L-0.999992 687.982L-2.99999 687.982L-2.99999 714.857L-0.999991 714.857ZM-1.99999 688.982L112.81 688.982L112.81 686.982L-1.99999 686.982L-1.99999 688.982ZM132.73 701.527C132.73 696.878 134.158 693.041 136.983 689.946L135.507 688.597C132.312 692.096 130.73 696.429 130.73 701.527L132.73 701.527ZM136.968 689.963C139.931 686.865 143.54 685.327 147.855 685.327L147.855 683.327C142.997 683.327 138.866 685.085 135.522 688.58L136.968 689.963ZM147.855 685.327C152.169 685.327 155.697 686.863 158.512 689.946L159.989 688.597C156.783 685.087 152.714 683.327 147.855 683.327L147.855 685.327ZM158.527 689.963C161.49 693.06 162.98 696.891 162.98 701.527L164.98 701.527C164.98 696.415 163.317 692.077 159.973 688.58L158.527 689.963ZM162.98 701.527C162.98 706.175 161.552 710.012 158.727 713.107L160.204 714.456C163.398 710.957 164.98 706.625 164.98 701.527L162.98 701.527ZM158.71 713.125C156.037 716.199 152.66 717.727 148.5 717.727L148.5 719.727C153.227 719.727 157.159 717.957 160.22 714.438L158.71 713.125ZM148.5 717.727C144.031 717.727 140.273 716.181 137.167 713.074L135.753 714.489C139.24 717.976 143.509 719.727 148.5 719.727L148.5 717.727ZM137.167 713.074C134.225 710.133 132.73 706.314 132.73 701.527L130.73 701.527C130.73 706.772 132.388 711.124 135.753 714.489L137.167 713.074ZM101.415 940.19L100.708 939.483L100.702 939.489L101.415 940.19ZM-1.99999 952.875L-2.99999 952.875L-2.99999 953.875L-1.99999 953.875L-1.99999 952.875ZM-1.99999 926L-1.99999 925L-2.99999 925L-2.99999 926L-1.99999 926ZM82.925 919.335L82.2724 918.577L82.262 918.586L82.925 919.335ZM81.635 878.485L80.9552 879.218L80.9641 879.227L81.635 878.485ZM-1.99999 870.315L-2.99999 870.315L-2.99999 871.315L-1.99999 871.315L-1.99999 870.315ZM-1.99999 843.44L-1.99999 842.44L-2.99999 842.44L-2.99999 843.44L-1.99999 843.44ZM82.925 836.775L82.2724 836.017L82.262 836.026L82.925 836.775ZM81.85 795.71L82.5298 794.977L82.52 794.968L81.85 795.71ZM-1.99999 787.755L-2.99999 787.755L-2.99999 788.755L-1.99999 788.755L-1.99999 787.755ZM-1.99999 760.88L-1.99999 759.88L-2.99999 759.88L-2.99999 760.88L-1.99999 760.88ZM112.81 760.88L113.81 760.88L113.81 759.88L112.81 759.88L112.81 760.88ZM112.81 786.465L112.81 787.465L113.81 787.465L113.81 786.465L112.81 786.465ZM98.19 786.465L98.19 785.465L95.428 785.465L97.5498 787.233L98.19 786.465ZM110.015 802.59L109.094 802.979L109.094 802.979L110.015 802.59ZM109.155 846.88L108.261 846.433L108.255 846.444L108.249 846.456L109.155 846.88ZM94.965 862.79L94.442 861.938L93.2178 862.689L94.3472 863.576L94.965 862.79ZM108.94 881.065L108.025 881.47L108.029 881.477L108.032 881.484L108.94 881.065ZM113.1 905.79C113.1 920.061 108.939 931.252 100.708 939.483L102.122 940.897C110.805 932.215 115.1 920.472 115.1 905.79L113.1 905.79ZM100.702 939.489C92.643 947.687 80.4044 951.875 63.79 951.875L63.79 953.875C80.7156 953.875 93.5603 949.607 102.128 940.891L100.702 939.489ZM63.79 951.875L-1.99999 951.875L-1.99999 953.875L63.79 953.875L63.79 951.875ZM-0.999988 952.875L-0.999989 926L-2.99999 926L-2.99999 952.875L-0.999988 952.875ZM-1.99999 927L60.35 927L60.35 925L-1.99999 925L-1.99999 927ZM60.35 927C70.5096 927 78.3161 924.753 83.588 920.084L82.262 918.586C77.5006 922.804 70.2571 925 60.35 925L60.35 927ZM83.5775 920.093C89.0063 915.418 91.665 908.734 91.665 900.2L89.665 900.2C89.665 908.292 87.1638 914.365 82.2725 918.577L83.5775 920.093ZM91.665 900.2C91.665 890.923 88.5603 883.402 82.3059 877.743L80.9641 879.227C86.7497 884.461 89.665 891.417 89.665 900.2L91.665 900.2ZM82.3148 877.752C76.1931 872.078 67.4577 869.315 56.265 869.315L56.265 871.315C67.1456 871.315 75.3236 873.999 80.9553 879.218L82.3148 877.752ZM56.265 869.315L-1.99999 869.315L-1.99999 871.315L56.265 871.315L56.265 869.315ZM-0.999989 870.315L-0.99999 843.44L-2.99999 843.44L-2.99999 870.315L-0.999989 870.315ZM-1.99999 844.44L60.35 844.44L60.35 842.44L-1.99999 842.44L-1.99999 844.44ZM60.35 844.44C70.5096 844.44 78.3161 842.193 83.588 837.524L82.262 836.026C77.5006 840.244 70.2571 842.44 60.35 842.44L60.35 844.44ZM83.5775 837.533C89.0063 832.858 91.665 826.174 91.665 817.64L89.665 817.64C89.665 825.732 87.1638 831.805 82.2725 836.017L83.5775 837.533ZM91.665 817.64C91.665 808.233 88.641 800.641 82.5298 794.977L81.1702 796.443C86.8123 801.673 89.665 808.701 89.665 817.64L91.665 817.64ZM82.52 794.968C76.3959 789.441 67.5908 786.755 56.265 786.755L56.265 788.755C67.2992 788.755 75.5507 791.372 81.18 796.452L82.52 794.968ZM56.265 786.755L-1.99999 786.755L-1.99999 788.755L56.265 788.755L56.265 786.755ZM-0.99999 787.755L-0.999991 760.88L-2.99999 760.88L-2.99999 787.755L-0.99999 787.755ZM-1.99999 761.88L112.81 761.88L112.81 759.88L-1.99999 759.88L-1.99999 761.88ZM111.81 760.88L111.81 786.465L113.81 786.465L113.81 760.88L111.81 760.88ZM112.81 785.465L98.19 785.465L98.19 787.465L112.81 787.465L112.81 785.465ZM97.5498 787.233C102.582 791.427 106.43 796.67 109.094 802.979L110.936 802.201C108.154 795.61 104.118 790.103 98.8302 785.697L97.5498 787.233ZM109.094 802.979C111.759 809.291 113.1 816.323 113.1 824.09L115.1 824.09C115.1 816.09 113.718 808.789 110.936 802.201L109.094 802.979ZM113.1 824.09C113.1 832.561 111.477 840 108.261 846.433L110.049 847.327C113.426 840.574 115.1 832.819 115.1 824.09L113.1 824.09ZM108.249 846.456C105.178 853.017 100.581 858.171 94.442 861.938L95.488 863.642C101.962 859.669 106.825 854.217 110.061 847.304L108.249 846.456ZM94.3472 863.576C100.23 868.199 104.791 874.156 108.025 881.47L109.855 880.661C106.496 873.067 101.74 866.841 95.5828 862.004L94.3472 863.576ZM108.032 881.484C111.406 888.793 113.1 896.89 113.1 905.79L115.1 905.79C115.1 896.63 113.354 888.243 109.848 880.646L108.032 881.484Z" fill="url(#paint1_linear_175_7)"/>
</g>
<defs>
<linearGradient id="paint0_linear_175_7" x1="19" y1="391.417" x2="1769.26" y2="965.186" gradientUnits="userSpaceOnUse">
<stop stop-color="#111111"/>
<stop offset="1"/>
</linearGradient>
<linearGradient id="paint1_linear_175_7" x1="76.3051" y1="-20" x2="76.3051" y2="976" gradientUnits="userSpaceOnUse">
<stop stop-color="#BD00FF"/>
<stop offset="1" stop-color="#FF2E00" stop-opacity="0.68"/>
</linearGradient>
</defs>
</svg>
