<svg width="1920" height="269" viewBox="0 0 1920 269" fill="none" xmlns="http://www.w3.org/2000/svg">
<mask id="mask0_176_27" style="mask-type:alpha" maskUnits="userSpaceOnUse" x="0" y="0" width="1920" height="269">
<rect width="1920" height="269" fill="#C4C4C4"/>
</mask>
<g mask="url(#mask0_176_27)">
<g filter="url(#filter0_d_176_27)">
<rect width="1920" height="269" fill="#030303"/>
<rect width="1918" height="269" fill="url(#paint0_linear_176_27)" fill-opacity="0.6"/>
<path d="M101.8 -3.00002C126.067 -3.00002 147.133 0.999985 165 8.99999C183.133 17 197 28.4666 206.6 43.4C216.2 58.3333 221 76.0667 221 96.6C221 116.867 216.2 134.6 206.6 149.8C197 164.733 183.133 176.2 165 184.2C147.133 192.2 126.067 196.2 101.8 196.2H38.6V277H-13.4L-13.4 -3.00002L101.8 -3.00002ZM99.4 152.2C122.067 152.2 139.267 147.4 151 137.8C162.733 128.2 168.6 114.467 168.6 96.6C168.6 78.7333 162.733 65 151 55.4C139.267 45.8 122.067 41 99.4 41H38.6L38.6 152.2H99.4ZM314.175 63.4L364.175 63.4V277H314.175V63.4ZM339.375 28.2C330.308 28.2 322.708 25.4 316.575 19.8C310.442 13.9333 307.375 6.73332 307.375 -1.80001C307.375 -10.3333 310.442 -17.4 316.575 -23C322.708 -28.8667 330.308 -31.8 339.375 -31.8C348.442 -31.8 356.042 -29 362.175 -23.4C368.308 -18.0667 371.375 -11.2667 371.375 -3.00002C371.375 5.79998 368.308 13.2666 362.175 19.4C356.308 25.2666 348.708 28.2 339.375 28.2ZM575.8 279.8C553.667 279.8 533.8 275.133 516.2 265.8C498.6 256.467 484.867 243.533 475 227C465.133 210.2 460.2 191.267 460.2 170.2C460.2 149.133 465.133 130.333 475 113.8C484.867 97.2667 498.467 84.3333 515.8 75C533.4 65.6667 553.4 61 575.8 61C596.867 61 615.267 65.2667 631 73.8C647 82.3333 659 94.6 667 110.6L628.6 133C622.467 123.133 614.733 115.8 605.4 111C596.333 105.933 586.333 103.4 575.4 103.4C556.733 103.4 541.267 109.533 529 121.8C516.733 133.8 510.6 149.933 510.6 170.2C510.6 190.467 516.6 206.733 528.6 219C540.867 231 556.467 237 575.4 237C586.333 237 596.333 234.6 605.4 229.8C614.733 224.733 622.467 217.267 628.6 207.4L667 229.8C658.733 245.8 646.6 258.2 630.6 267C614.867 275.533 596.6 279.8 575.8 279.8ZM843.469 185.4L806.269 220.6V277H756.269V-19.8H806.269V159.4L909.869 63.4L969.869 63.4L880.669 153L978.269 277H917.469L843.469 185.4ZM1244.97 212.2L1104.97 212.2L1077.37 277H1023.77L1149.77 -3.00002L1200.97 -3.00002L1327.37 277H1272.97L1244.97 212.2ZM1227.77 171.4L1174.97 49L1122.57 171.4H1227.77ZM1406.18 63.4H1456.18V277H1406.18V63.4ZM1431.38 28.2C1422.31 28.2 1414.71 25.4 1408.58 19.8C1402.44 13.9333 1399.38 6.73332 1399.38 -1.80001C1399.38 -10.3333 1402.44 -17.4 1408.58 -23C1414.71 -28.8667 1422.31 -31.8 1431.38 -31.8C1440.44 -31.8 1448.04 -29 1454.18 -23.4C1460.31 -18.0667 1463.38 -11.2667 1463.38 -3.00002C1463.38 5.79998 1460.31 13.2666 1454.18 19.4C1448.31 25.2666 1440.71 28.2 1431.38 28.2ZM1839.4 61C1866.33 61 1887.67 68.8667 1903.4 84.6C1919.13 100.067 1927 123.4 1927 154.6V277H1877V161C1877 142.333 1872.87 128.333 1864.6 119C1856.33 109.4 1844.47 104.6 1829 104.6C1812.2 104.6 1798.73 110.2 1788.6 121.4C1778.47 132.333 1773.4 148.067 1773.4 168.6V277H1723.4V161C1723.4 142.333 1719.27 128.333 1711 119C1702.73 109.4 1690.87 104.6 1675.4 104.6C1658.33 104.6 1644.73 110.067 1634.6 121C1624.73 131.933 1619.8 147.8 1619.8 168.6V277H1569.8V63.4H1617.4V90.6C1625.4 81 1635.4 73.6667 1647.4 68.6C1659.4 63.5333 1672.73 61 1687.4 61C1703.4 61 1717.53 64.0667 1729.8 70.2C1742.33 76.0667 1752.2 84.8667 1759.4 96.6C1768.2 85.4 1779.53 76.7333 1793.4 70.6C1807.27 64.2 1822.6 61 1839.4 61Z" fill="url(#paint1_linear_176_27)" fill-opacity="0.1"/>
</g>
</g>
<defs>
<filter id="filter0_d_176_27" x="-17.4" y="-31.8" width="1948.4" height="319.6" filterUnits="userSpaceOnUse" color-interpolation-filters="sRGB">
<feFlood flood-opacity="0" result="BackgroundImageFix"/>
<feColorMatrix in="SourceAlpha" type="matrix" values="0 0 0 0 0 0 0 0 0 0 0 0 0 0 0 0 0 0 127 0" result="hardAlpha"/>
<feOffset dy="4"/>
<feGaussianBlur stdDeviation="2"/>
<feComposite in2="hardAlpha" operator="out"/>
<feColorMatrix type="matrix" values="0 0 0 0 0 0 0 0 0 0 0 0 0 0 0 0 0 0 0.25 0"/>
<feBlend mode="normal" in2="BackgroundImageFix" result="effect1_dropShadow_176_27"/>
<feBlend mode="normal" in="SourceGraphic" in2="effect1_dropShadow_176_27" result="shape"/>
</filter>
<linearGradient id="paint0_linear_176_27" x1="-43.4547" y1="258.901" x2="1864.23" y2="-307.628" gradientUnits="userSpaceOnUse">
<stop stop-color="#9308D2"/>
<stop offset="1" stop-color="#E52A05" stop-opacity="0"/>
</linearGradient>
<linearGradient id="paint1_linear_176_27" x1="24.1629" y1="131.746" x2="2322" y2="131.746" gradientUnits="userSpaceOnUse">
<stop stop-color="#0016DB"/>
<stop offset="1" stop-color="#FF2E00" stop-opacity="0.92"/>
</linearGradient>
</defs>
</svg>
